{
.appVersion = "1357";
classes = (
{

glyphs = (
{
glyphname = "kap-uyg.medi_waw-uyg.medi";
lastChange = "2021-12-09 08:59:54 +0000";
layers = (
{
anchors = (
{
name = caret_1;
position = "{319, 0}";
}
);
layerId = m01;
paths = (
{
closed = 1;
nodes = (
"514 0 LINE",
"633 0 LINE SMOOTH",
"638 0 OFFCURVE",
"641 3 OFFCURVE",
"641 8 CURVE SMOOTH",
"641 87 LINE SMOOTH",
"641 92 OFFCURVE",
"638 95 OFFCURVE",
"633 95 CURVE SMOOTH",
"526 95 LINE"
);
},
{
closed = 1;
nodes = (
"537 97 LINE",
"471 126 OFFCURVE",
"429 207 OFFCURVE",
"389 274 CURVE",
"384 274 LINE",
"292 182 LINE",
"315 144 OFFCURVE",
"383 63 OFFCURVE",
"424 45 CURVE",
"424 0 LINE"
);
},
{
closed = 1;
nodes = (
"348 -153 OFFCURVE",
"632 40 OFFCURVE",
"632 116 CURVE SMOOTH",
"632 121 OFFCURVE",
"632 129 OFFCURVE",
"629 142 CURVE SMOOTH",
"594 272 LINE",
"581 272 LINE",
"573 231 OFFCURVE",
"540 167 OFFCURVE",
"506 129 CURVE SMOOTH",
"441 57 LINE",
"356 -8 OFFCURVE",
"259 -47 OFFCURVE",
"176 -47 CURVE SMOOTH",
"105 -47 OFFCURVE",
"73 -30 OFFCURVE",
"55 0 CURVE",
"207 0 LINE SMOOTH",
"230 0 OFFCURVE",
"279 79 OFFCURVE",
"279 115 CURVE SMOOTH",
"279 165 OFFCURVE",
"203 264 OFFCURVE",
"121 264 CURVE SMOOTH",
"54 264 OFFCURVE",
"3 201 OFFCURVE",
"3 57 CURVE SMOOTH",
"3 -59 OFFCURVE",
"59 -153 OFFCURVE",
"168 -153 CURVE SMOOTH"
);
},
{
closed = 1;
nodes = (
"71 146 OFFCURVE",
"90 167 OFFCURVE",
"127 167 CURVE SMOOTH",
"165 167 OFFCURVE",
"211 142 OFFCURVE",
"226 95 CURVE",
"55 95 LINE"
);
},
{
closed = 1;
nodes = (
"0 95 LINE SMOOTH",
"-5 95 OFFCURVE",
"-8 92 OFFCURVE",
"-8 87 CURVE SMOOTH",
"-8 8 LINE SMOOTH",
"-8 3 OFFCURVE",
"-5 0 OFFCURVE",
"0 0 CURVE SMOOTH",
"123 0 LINE",
"111 95 LINE"
);
}
);
width = 633;
}
);
script = "Old Uyghur";
category = Letter;
subCategory = Ligature;
},
{
glyphname = "kashida-ar";
lastChange = "2021-12-09 08:59:54 +0000";
layers = (
{
anchors = (
{
name = bottom;
position = "{434, 0}";
},
{
name = top;
position = "{434, 1069}";
}
);
layerId = m01;
paths = (
{
closed = 1;
nodes = (
"374 0 LINE SMOOTH",
"411 0 OFFCURVE",
"436 64 OFFCURVE",
"436 90 CURVE",
"428 95 LINE",
"0 95 LINE SMOOTH",
"-5 95 OFFCURVE",
"-8 92 OFFCURVE",
"-8 87 CURVE SMOOTH",
"-8 8 LINE SMOOTH",
"-8 3 OFFCURVE",
"-5 0 OFFCURVE",
"0 0 CURVE SMOOTH"
);
}
);
width = 446;
}
);
unicode = 0640;
script = "Old Uyghur";
category = Letter;
},
{
glyphname = "kaph-uyg_lesh-uyg";
lastChange = "2021-12-09 08:59:54 +0000";
layers = (
{
anchors = (
{
name = caret_1;
position = "{315, 0}";
}
);
components = (
{
name = "kaph-uyg.init";
transform = "{1, 0, 0, 1, 307, 0}";
}
);
layerId = m01;
paths = (
{
closed = 1;
nodes = (
"126 318 LINE",
"86 277 OFFCURVE",
"10 173 OFFCURVE",
"10 124 CURVE SMOOTH",
"10 43 OFFCURVE",
"93 -8 OFFCURVE",
"187 -16 CURVE SMOOTH",
"222 -19 OFFCURVE",
"228 16 OFFCURVE",
"237 47 CURVE SMOOTH",
"297 257 LINE",
"288 268 LINE",
"230 228 OFFCURVE",
"155 165 OFFCURVE",
"102 72 CURVE",
"147 72 LINE",
"146 95 LINE",
"133 315 LINE"
);
},
{
closed = 1;
nodes = (
"315 -220 LINE",
"311 -214 LINE",
"169 -214 LINE",
"177 -235 LINE",
"191 -92 LINE",
"151 -60 LINE",
"95 -242 LINE SMOOTH",
"90 -257 OFFCURVE",
"87 -267 OFFCURVE",
"87 -275 CURVE SMOOTH",
"87 -297 OFFCURVE",
"94 -307 OFFCURVE",
"125 -307 CURVE SMOOTH",
"161 -307 OFFCURVE",
"218 -314 OFFCURVE",
"257 -327 CURVE",
"265 -322 LINE"
);
}
);
width = 667;
}
);
leftMetricsKey = "lesh-uyg";
rightMetricsKey = "kaph-uyg";
script = "Old Uyghur";
category = Letter;
},
{
glyphname = "kaph-uyg_waw-uyg";
lastChange = "2021-12-09 08:59:54 +0000";
layers = (
{
anchors = (
{
name = caret_1;
position = "{341, 0}";
}
);
layerId = m01;
paths = (
{
closed = 1;
nodes = (
"365 -153 OFFCURVE",
"648 40 OFFCURVE",
"648 116 CURVE SMOOTH",
"648 121 OFFCURVE",
"648 129 OFFCURVE",
"645 141 CURVE SMOOTH",
"610 271 LINE",
"597 271 LINE",
"589 231 OFFCURVE",
"557 167 OFFCURVE",
"522 129 CURVE SMOOTH",
"515 121 LINE",
"470 159 OFFCURVE",
"436 220 OFFCURVE",
"407 273 CURVE",
"400 273 LINE",
"309 182 LINE",
"331 143 OFFCURVE",
"399 63 OFFCURVE",
"441 45 CURVE",
"361 -13 OFFCURVE",
"270 -48 OFFCURVE",
"193 -48 CURVE SMOOTH",
"122 -48 OFFCURVE",
"91 -30 OFFCURVE",
"72 0 CURVE",
"224 0 LINE SMOOTH",
"249 0 OFFCURVE",
"296 79 OFFCURVE",
"296 114 CURVE SMOOTH",
"296 165 OFFCURVE",
"220 263 OFFCURVE",
"138 263 CURVE SMOOTH",
"71 263 OFFCURVE",
"20 200 OFFCURVE",
"20 57 CURVE SMOOTH",
"20 -59 OFFCURVE",
"76 -153 OFFCURVE",
"185 -153 CURVE SMOOTH"
);
},
{
closed = 1;
nodes = (
"90 146 OFFCURVE",
"107 167 OFFCURVE",
"144 167 CURVE SMOOTH",
"182 167 OFFCURVE",
"228 142 OFFCURVE",
"244 95 CURVE",
"72 95 LINE"
);
}
);
width = 658;
}
);
script = "Old Uyghur";
category = Letter;
},
{
glyphname = "aleph-uyg";
lastChange = "2021-12-09 08:59:54 +0000";
layers = (
{
layerId = m01;
paths = (
{
closed = 1;
nodes = (
"764 66 LINE",
"763 74 LINE",
"696 96 OFFCURVE",
"659 151 OFFCURVE",
"659 238 CURVE",
"651 238 LINE",
"595 182 LINE SMOOTH",
"578 165 OFFCURVE",
"557 141 OFFCURVE",
"557 95 CURVE SMOOTH",
"557 54 OFFCURVE",
"585 10 OFFCURVE",
"676 -22 CURVE"
);
},
{
closed = 1;
nodes = (
"89 -12 OFFCURVE",
"94 -12 OFFCURVE",
"98 -12 CURVE SMOOTH",
"642 0 LINE",
"700 50 LINE",
"645 95 LINE",
"205 95 LINE SMOOTH",
"124 95 OFFCURVE",
"108 110 OFFCURVE",
"105 167 CURVE",
"98 167 LINE",
"30 99 LINE SMOOTH",
"17 86 OFFCURVE",
"10 74 OFFCURVE",
"10 56 CURVE SMOOTH",
"10 26 OFFCURVE",
"32 -12 OFFCURVE",
"81 -12 CURVE SMOOTH"
);
}
);
width = 774;
}
);
unicode = 10F70;
script = "Old Uyghur";
category = Letter;
subCategory = Other;
userData = {
case = noCase;
};
},
{
glyphname = "beth-uyg";
lastChange = "2021-12-09 08:59:54 +0000";
layers = (
{
guideLines = (
{
angle = 225;
position = "{7, 145}";
},
{
angle = 225;
position = "{289, 58}";
}
);
layerId = m01;
paths = (
{
closed = 1;
nodes = (
"688 95 LINE",
"206 95 LINE SMOOTH",
"124 95 OFFCURVE",
"107 109 OFFCURVE",
"105 166 CURVE",
"98 166 LINE",
"30 98 LINE SMOOTH",
"17 86 OFFCURVE",
"10 73 OFFCURVE",
"10 52 CURVE SMOOTH",
"10 24 OFFCURVE",
"30 -15 OFFCURVE",
"81 -15 CURVE SMOOTH",
"98 -15 LINE",
"630 0 LINE"
);
},
{
closed = 1;
nodes = (
"629 -26 LINE",
"705 68 LINE",
"694 186 OFFCURVE",
"595 266 OFFCURVE",
"509 266 CURVE SMOOTH",
"471 266 OFFCURVE",
"451 251 OFFCURVE",
"435 236 CURVE SMOOTH",
"368 170 LINE",
"372 163 LINE",
"387 168 OFFCURVE",
"404 173 OFFCURVE",
"431 173 CURVE SMOOTH",
"496 173 OFFCURVE",
"567 148 OFFCURVE",
"591 62 CURVE",
"599 27 LINE",
"620 -26 LINE"
);
}
);
visible = 1;
width = 715;
}
);
unicode = 10F71;
script = "Old Uyghur";
category = Letter;
},
{
glyphname = "gimelHeth-uyg";
lastChange = "2021-12-09 08:59:54 +0000";
layers = (
{
anchors = (
{
name = top;
position = "{199, 326}";
}
);
guideLines = (
{
angle = 225;
position = "{138, 220}";
}
);
layerId = m01;
paths = (
{
closed = 1;
nodes = (
"196 0 LINE",
"267 0 LINE SMOOTH",
"312 0 OFFCURVE",
"334 32 OFFCURVE",
"334 75 CURVE SMOOTH",
"334 123 OFFCURVE",
"307 205 OFFCURVE",
"282 256 CURVE",
"275 256 LINE",
"255 214 OFFCURVE",
"234 166 OFFCURVE",
"208 128 CURVE",
"145 256 LINE",
"133 256 LINE",
"104 217 OFFCURVE",
"69 183 OFFCURVE",
"29 152 CURVE",
"73 62 LINE SMOOTH",
"87 33 OFFCURVE",
"84 19 OFFCURVE",
"59 -74 CURVE SMOOTH",
"5 -273 LINE",
"23 -278 LINE"
);
}
);
width = 349;
}
);
rightMetricsKey = "nun-uyg";
unicode = 10F72;
script = "Old Uyghur";
category = Letter;
},
{
glyphname = "waw-uyg";
lastChange = "2021-12-09 08:59:54 +0000";
layers = (
{
layerId = m01;
paths = (
{
closed = 1;
nodes = (
"453 0 LINE SMOOTH",
"459 0 OFFCURVE",
"462 2 OFFCURVE",
"462 9 CURVE SMOOTH",
"466 164 LINE SMOOTH",
"466 167 OFFCURVE",
"466 170 OFFCURVE",
"465 175 CURVE SMOOTH",
"451 229 OFFCURVE",
"412 264 OFFCURVE",
"349 264 CURVE SMOOTH",
"265 264 OFFCURVE",
"211 202 OFFCURVE",
"190 92 CURVE",
"248 81 LINE",
"264 144 OFFCURVE",
"299 167 OFFCURVE",
"340 167 CURVE SMOOTH",
"386 167 OFFCURVE",
"419 130 OFFCURVE",
"420 62 CURVE",
"420 0 LINE"
);
},
{
closed = 1;
nodes = (
"37 -4 OFFCURVE",
"70 0 OFFCURVE",
"112 0 CURVE SMOOTH",
"441 0 LINE",
"441 95 LINE",
"123 95 LINE",
"77 95 OFFCURVE",
"59 86 OFFCURVE",
"45 63 CURVE SMOOTH",
"5 -2 LINE",
"7 -12 LINE"
);
}
);
width = 486;
}
);
unicode = 10F73;
script = "Old Uyghur";
category = Letter;
},
{
glyphname = "zayin-uyg";
lastChange = "2021-12-09 08:59:54 +0000";
layers = (
{
anchors = (
{
name = bottom;
position = "{123, 0}";
}
);
layerId = m01;
paths = (
{
closed = 1;
nodes = (
"13 -12 LINE",
"43 -5 OFFCURVE",
"76 0 OFFCURVE",
"118 0 CURVE SMOOTH",
"189 0 LINE",
"223 95 LINE",
"130 95 LINE SMOOTH",
"83 95 OFFCURVE",
"65 87 OFFCURVE",
"51 63 CURVE SMOOTH",
"10 -2 LINE"
);
},
{
closed = 1;
nodes = (
"131 77 LINE",
"189 0 LINE",
"221 0 OFFCURVE",
"228 13 OFFCURVE",
"228 90 CURVE SMOOTH",
"228 288 LINE",
"215 289 LINE",
"151 228 LINE"
);
}
);
width = 258;
}
);
unicode = 10F74;
script = "Old Uyghur";
category = Letter;
},
{
glyphname = "finalHeth-uyg";
lastChange = "2021-12-09 08:59:54 +0000";
layers = (
{
anchors = (
{
name = top;
position = "{608, 326}";
}
);
layerId = m01;
paths = (
{
closed = 1;
nodes = (
"98 -13 LINE",
"382 -1 LINE SMOOTH",
"429 1 OFFCURVE",
"453 18 OFFCURVE",
"481 40 CURVE SMOOTH",
"495 51 LINE",
"510 23 OFFCURVE",
"544 0 OFFCURVE",
"595 0 CURVE SMOOTH",
"697 0 LINE SMOOTH",
"717 0 OFFCURVE",
"733 13 OFFCURVE",
"733 71 CURVE SMOOTH",
"733 147 OFFCURVE",
"711 222 OFFCURVE",
"695 263 CURVE",
"687 263 LINE",
"667 218 OFFCURVE",
"639 165 OFFCURVE",
"612 123 CURVE",
"608 168 OFFCURVE",
"604 236 OFFCURVE",
"604 301 CURVE",
"600 301 LINE",
"548 244 OFFCURVE",
"504 188 OFFCURVE",
"492 121 CURVE",
"463 102 OFFCURVE",
"428 95 OFFCURVE",
"388 95 CURVE SMOOTH",
"207 95 LINE SMOOTH",
"125 95 OFFCURVE",
"109 110 OFFCURVE",
"107 168 CURVE",
"98 168 LINE",
"31 100 LINE SMOOTH",
"18 87 OFFCURVE",
"10 73 OFFCURVE",
"10 53 CURVE SMOOTH",
"10 26 OFFCURVE",
"32 -13 OFFCURVE",
"82 -13 CURVE SMOOTH"
);
}
);
width = 743;
}
);
unicode = 10F75;
script = "Old Uyghur";
category = Letter;
},
{
glyphname = "yodh-uyg";
lastChange = "2021-12-09 08:59:54 +0000";
layers = (
{
guideLines = (
{
angle = 225;
position = "{213, 58}";
},
{
angle = 225;
position = "{17, 204}";
}
);
layerId = m01;
paths = (
{
closed = 1;
nodes = (
"43 -4 OFFCURVE",
"76 0 OFFCURVE",
"118 0 CURVE SMOOTH",
"387 0 LINE",
"430 0 OFFCURVE",
"449 34 OFFCURVE",
"471 83 CURVE",
"471 92 LINE",
"435 184 LINE SMOOTH",
"406 261 OFFCURVE",
"361 279 OFFCURVE",
"299 279 CURVE SMOOTH",
"286 279 OFFCURVE",
"275 276 OFFCURVE",
"264 263 CURVE SMOOTH",
"163 163 LINE",
"168 155 LINE",
"192 161 OFFCURVE",
"213 164 OFFCURVE",
"233 164 CURVE SMOOTH",
"284 164 OFFCURVE",
"303 151 OFFCURVE",
"340 95 CURVE",
"129 95 LINE SMOOTH",
"85 95 OFFCURVE",
"65 87 OFFCURVE",
"49 63 CURVE SMOOTH",
"10 -2 LINE",
"14 -12 LINE"
);
}
);
width = 486;
}
);
unicode = 10F76;
script = "Old Uyghur";
category = Letter;
},
{
glyphname = "kaph-uyg";
lastChange = "2021-12-09 08:59:54 +0000";
layers = (
{
layerId = m01;
paths = (
{
closed = 1;
nodes = (
"460 196 LINE",
"503 169 OFFCURVE",
"541 132 OFFCURVE",
"564 95 CURVE",
"204 95 LINE SMOOTH",
"122 95 OFFCURVE",
"107 109 OFFCURVE",
"105 165 CURVE",
"97 165 LINE",
"29 99 LINE",
"18 86 OFFCURVE",
"10 73 OFFCURVE",
"10 52 CURVE SMOOTH",
"10 25 OFFCURVE",
"31 -13 OFFCURVE",
"80 -13 CURVE SMOOTH",
"97 -13 LINE",
"623 0 LINE",
"644 0 LINE SMOOTH",
"690 0 OFFCURVE",
"717 40 OFFCURVE",
"717 95 CURVE SMOOTH",
"717 147 OFFCURVE",
"704 206 OFFCURVE",
"686 257 CURVE",
"678 257 LINE",
"632 137 LINE",
"623 187 OFFCURVE",
"605 238 OFFCURVE",
"580 288 CURVE",
"460 202 LINE"
);
}
);
width = 727;
}
);
unicode = 10F77;
script = "Old Uyghur";
category = Letter;
},
{
glyphname = "lamedh-uyg";
lastChange = "2021-12-09 08:59:54 +0000";
layers = (
{
layerId = m01;
paths = (
{
closed = 1;
nodes = (
"683 0 LINE SMOOTH",
"715 0 OFFCURVE",
"763 95 OFFCURVE",
"763 127 CURVE SMOOTH",
"763 134 LINE",
"658 222 OFFCURVE",
"600 370 OFFCURVE",
"600 499 CURVE SMOOTH",
"600 544 OFFCURVE",
"606 575 OFFCURVE",
"615 609 CURVE",
"604 612 LINE",
"460 522 OFFCURVE",
"385 467 OFFCURVE",
"385 379 CURVE SMOOTH",
"385 353 OFFCURVE",
"394 334 OFFCURVE",
"402 326 CURVE",
"407 326 LINE",
"512 354 LINE",
"500 374 OFFCURVE",
"492 401 OFFCURVE",
"492 417 CURVE SMOOTH",
"492 448 OFFCURVE",
"506 484 OFFCURVE",
"539 510 CURVE",
"551 506 LINE",
"546 484 OFFCURVE",
"541 443 OFFCURVE",
"541 404 CURVE SMOOTH",
"541 279 OFFCURVE",
"604 159 OFFCURVE",
"647 95 CURVE",
"205 95 LINE SMOOTH",
"123 95 OFFCURVE",
"107 109 OFFCURVE",
"106 167 CURVE",
"97 167 LINE",
"30 99 LINE SMOOTH",
"18 87 OFFCURVE",
"10 74 OFFCURVE",
"10 52 CURVE SMOOTH",
"10 25 OFFCURVE",
"31 -13 OFFCURVE",
"81 -13 CURVE SMOOTH",
"97 -13 LINE",
"626 0 LINE"
);
}
);
width = 773;
}
);
unicode = 10F78;
script = "Old Uyghur";
category = Letter;
},
{
glyphname = "mem-uyg";
lastChange = "2021-12-09 08:59:54 +0000";
layers = (
{
layerId = m01;
paths = (
{
closed = 1;
nodes = (
"516 102 LINE",
"512 106 LINE",
"496 104 OFFCURVE",
"360 95 OFFCURVE",
"321 95 CURVE",
"315 144 OFFCURVE",
"291 216 OFFCURVE",
"269 261 CURVE",
"259 261 LINE",
"236 196 OFFCURVE",
"207 140 OFFCURVE",
"173 95 CURVE",
"81 95 LINE",
"10 -1 LINE",
"14 -12 LINE",
"38 -10 OFFCURVE",
"205 0 OFFCURVE",
"242 0 CURVE SMOOTH",
"285 0 LINE",
"324 -78 LINE",
"-65 -78 LINE SMOOTH",
"-111 -78 OFFCURVE",
"-130 -86 OFFCURVE",
"-144 -110 CURVE SMOOTH",
"-184 -174 LINE",
"-181 -185 LINE",
"-151 -177 OFFCURVE",
"-119 -172 OFFCURVE",
"-76 -172 CURVE SMOOTH",
"381 -172 LINE SMOOTH",
"420 -172 OFFCURVE",
"435 -130 OFFCURVE",
"453 -90 CURVE",
"453 -85 LINE",
"421 -64 OFFCURVE",
"378 -34 OFFCURVE",
"352 0 CURVE",
"387 -1 OFFCURVE",
"421 -4 OFFCURVE",
"453 -8 CURVE"
);
}
);
width = 526;
}
);
unicode = 10F79;
script = "Old Uyghur";
category = Letter;
},
{
glyphname = "nun-uyg";
lastChange = "2021-12-09 08:59:54 +0000";
layers = (
{
anchors = (
{
name = top;
position = "{627, 326}";
}
);
guideLines = (
{
angle = 45;
position = "{296, 271}";
}
);
layerId = m01;
paths = (
{
closed = 1;
nodes = (
"682 0 LINE SMOOTH",
"723 0 OFFCURVE",
"745 32 OFFCURVE",
"745 74 CURVE SMOOTH",
"745 124 OFFCURVE",
"719 183 OFFCURVE",
"691 225 CURVE",
"684 225 LINE",
"598 95 LINE",
"209 95 LINE SMOOTH",
"127 95 OFFCURVE",
"109 110 OFFCURVE",
"107 168 CURVE",
"99 168 LINE",
"31 99 LINE SMOOTH",
"19 87 OFFCURVE",
"10 73 OFFCURVE",
"10 52 CURVE SMOOTH",
"10 24 OFFCURVE",
"32 -14 OFFCURVE",
"83 -14 CURVE SMOOTH",
"99 -14 LINE",
"639 0 LINE"
);
}
);
width = 760;
}
);
unicode = 10F7A;
script = "Old Uyghur";
category = Letter;
},
{
glyphname = "samekh-uyg";
lastChange = "2021-12-09 08:59:54 +0000";
layers = (
{
layerId = m01;
paths = (
{
closed = 1;
nodes = (
"-86 -113 LINE",
"-7 -70 OFFCURVE",
"105 -4 OFFCURVE",
"183 81 CURVE",
"190 67 OFFCURVE",
"196 45 OFFCURVE",
"196 16 CURVE SMOOTH",
"196 -28 OFFCURVE",
"180 -64 OFFCURVE",
"147 -109 CURVE",
"189 -151 LINE",
"313 -55 LINE SMOOTH",
"391 6 OFFCURVE",
"412 32 OFFCURVE",
"412 76 CURVE SMOOTH",
"412 124 OFFCURVE",
"384 207 OFFCURVE",
"359 257 CURVE",
"352 257 LINE",
"332 202 OFFCURVE",
"308 146 OFFCURVE",
"276 96 CURVE",
"261 159 OFFCURVE",
"230 202 OFFCURVE",
"191 237 CURVE",
"179 237 LINE",
"93 83 OFFCURVE",
"4 -20 OFFCURVE",
"-100 -96 CURVE"
);
}
);
width = 432;
}
);
unicode = 10F7B;
script = "Old Uyghur";
category = Letter;
},
{
glyphname = "pe-uyg";
lastChange = "2021-12-09 08:59:54 +0000";
layers = (
{
layerId = m01;
paths = (
{
closed = 1;
nodes = (
"605 0 LINE SMOOTH",
"641 0 OFFCURVE",
"666 64 OFFCURVE",
"666 104 CURVE SMOOTH",
"666 209 OFFCURVE",
"555 323 OFFCURVE",
"515 323 CURVE SMOOTH",
"480 323 OFFCURVE",
"387 236 OFFCURVE",
"387 189 CURVE SMOOTH",
"387 161 OFFCURVE",
"396 114 OFFCURVE",
"397 95 CURVE",
"355 95 LINE SMOOTH",
"154 95 OFFCURVE",
"40 243 OFFCURVE",
"29 465 CURVE",
"17 465 LINE",
"5 418 LINE",
"0 139 OFFCURVE",
"146 0 OFFCURVE",
"330 0 CURVE"
);
},
{
closed = 1;
nodes = (
"471 114 OFFCURVE",
"452 164 OFFCURVE",
"452 185 CURVE SMOOTH",
"452 201 OFFCURVE",
"469 225 OFFCURVE",
"482 225 CURVE SMOOTH",
"504 225 OFFCURVE",
"569 129 OFFCURVE",
"585 95 CURVE",
"478 95 LINE"
);
}
);
width = 686;
}
);
unicode = 10F7C;
script = "Old Uyghur";
category = Letter;
},
{
glyphname = "sadhe-uyg";
lastChange = "2021-12-09 08:59:54 +0000";
layers = (
{
layerId = m01;
paths = (
{
closed = 1;
nodes = (
"100 -14 LINE",
"560 0 LINE",
"699 0 LINE SMOOTH",
"745 0 OFFCURVE",
"757 47 OFFCURVE",
"777 103 CURVE",
"773 106 LINE",
"749 102 OFFCURVE",
"660 95 OFFCURVE",
"604 95 CURVE SMOOTH",
"567 95 LINE",
"585 162 LINE",
"597 161 OFFCURVE",
"656 159 OFFCURVE",
"698 159 CURVE SMOOTH",
"718 159 OFFCURVE",
"726 164 OFFCURVE",
"736 190 CURVE SMOOTH",
"771 277 LINE",
"766 281 LINE",
"715 264 OFFCURVE",
"634 260 OFFCURVE",
"612 260 CURVE SMOOTH",
"578 260 OFFCURVE",
"555 253 OFFCURVE",
"543 201 CURVE SMOOTH",
"515 95 LINE",
"209 95 LINE SMOOTH",
"125 95 OFFCURVE",
"110 110 OFFCURVE",
"108 169 CURVE",
"100 169 LINE",
"31 99 LINE SMOOTH",
"19 87 OFFCURVE",
"10 73 OFFCURVE",
"10 52 CURVE SMOOTH",
"10 25 OFFCURVE",
"32 -14 OFFCURVE",
"82 -14 CURVE SMOOTH"
);
}
);
width = 792;
}
);
unicode = 10F7D;
script = "Old Uyghur";
category = Letter;
},
{
glyphname = "resh-uyg";
lastChange = "2021-12-09 08:59:54 +0000";
layers = (
{
layerId = m01;
paths = (
{
closed = 1;
nodes = (
"210 200 LINE",
"254 171 OFFCURVE",
"293 132 OFFCURVE",
"315 95 CURVE",
"129 95 LINE SMOOTH",
"82 95 OFFCURVE",
"66 88 OFFCURVE",
"51 63 CURVE SMOOTH",
"10 -1 LINE",
"14 -11 LINE",
"44 -4 OFFCURVE",
"74 0 OFFCURVE",
"118 0 CURVE SMOOTH",
"397 0 LINE SMOOTH",
"443 0 OFFCURVE",
"470 42 OFFCURVE",
"470 97 CURVE SMOOTH",
"470 150 OFFCURVE",
"458 210 OFFCURVE",
"439 261 CURVE",
"431 261 LINE",
"418 227 OFFCURVE",
"406 193 OFFCURVE",
"379 160 CURVE",
"370 205 OFFCURVE",
"354 247 OFFCURVE",
"332 291 CURVE",
"210 206 LINE"
);
}
);
width = 490;
}
);
unicode = 10F7E;
script = "Old Uyghur";
category = Letter;
},
{
glyphname = "shin-uyg";
lastChange = "2021-12-09 08:59:54 +0000";
layers = (
{
anchors = (
{
name = bottom;
position = "{103, -130}";
}
);
layerId = m01;
paths = (
{
closed = 1;
nodes = (
"255 -153 LINE",
"265 -153 LINE",
"355 -42 LINE SMOOTH",
"385 -5 OFFCURVE",
"415 32 OFFCURVE",
"415 77 CURVE SMOOTH",
"415 125 OFFCURVE",
"387 209 OFFCURVE",
"362 260 CURVE",
"355 260 LINE",
"268 0 LINE",
"301 22 LINE",
"202 225 LINE",
"191 225 LINE",
"94 84 OFFCURVE",
"3 -20 OFFCURVE",
"-100 -97 CURVE",
"-87 -114 LINE",
"-2 -68 OFFCURVE",
"119 3 OFFCURVE",
"199 95 CURVE",
"147 69 LINE"
);
}
);
width = 435;
}
);
leftMetricsKey = "samekh-uyg";
unicode = 10F7F;
script = "Old Uyghur";
category = Letter;
},
{
glyphname = "taw-uyg";
lastChange = "2021-12-09 08:59:54 +0000";
layers = (
{
layerId = m01;
paths = (
{
closed = 1;
nodes = (
"100 -14 LINE",
"442 -3 LINE SMOOTH",
"490 0 OFFCURVE",
"515 18 OFFCURVE",
"543 40 CURVE SMOOTH",
"606 88 LINE",
"593 148 LINE",
"554 123 LINE SMOOTH",
"525 103 OFFCURVE",
"487 95 OFFCURVE",
"448 95 CURVE SMOOTH",
"211 95 LINE SMOOTH",
"127 95 OFFCURVE",
"111 112 OFFCURVE",
"109 170 CURVE",
"100 170 LINE",
"31 100 LINE SMOOTH",
"19 87 OFFCURVE",
"10 73 OFFCURVE",
"10 53 CURVE SMOOTH",
"10 24 OFFCURVE",
"32 -14 OFFCURVE",
"83 -14 CURVE SMOOTH"
);
},
{
closed = 1;
nodes = (
"859 0 LINE SMOOTH",
"881 0 OFFCURVE",
"885 41 OFFCURVE",
"885 77 CURVE SMOOTH",
"885 170 OFFCURVE",
"847 292 OFFCURVE",
"794 292 CURVE SMOOTH",
"739 292 OFFCURVE",
"690 239 OFFCURVE",
"634 178 CURVE",
"645 112 LINE",
"679 146 OFFCURVE",
"723 186 OFFCURVE",
"743 186 CURVE SMOOTH",
"759 186 OFFCURVE",
"772 126 OFFCURVE",
"772 95 CURVE",
"694 95 LINE SMOOTH",
"667 95 OFFCURVE",
"660 107 OFFCURVE",
"661 130 CURVE SMOOTH",
"669 306 LINE",
"665 306 LINE",
"602 237 OFFCURVE",
"549 168 OFFCURVE",
"549 82 CURVE SMOOTH",
"549 33 OFFCURVE",
"592 0 OFFCURVE",
"645 0 CURVE SMOOTH"
);
}
);
width = 905;
}
);
unicode = 10F80;
script = "Old Uyghur";
category = Letter;
},
{
glyphname = "lesh-uyg";
lastChange = "2021-12-09 08:59:54 +0000";
layers = (
{
layerId = m01;
paths = (
{
closed = 1;
nodes = (
"128 324 LINE",
"87 281 OFFCURVE",
"10 175 OFFCURVE",
"10 125 CURVE SMOOTH",
"10 64 OFFCURVE",
"48 16 OFFCURVE",
"106 -6 CURVE",
"55 -170 LINE SMOOTH",
"50 -186 OFFCURVE",
"46 -197 OFFCURVE",
"46 -207 CURVE SMOOTH",
"46 -230 OFFCURVE",
"54 -242 OFFCURVE",
"87 -242 CURVE SMOOTH",
"129 -242 OFFCURVE",
"190 -249 OFFCURVE",
"234 -263 CURVE",
"243 -259 LINE",
"297 -144 LINE",
"293 -138 LINE",
"148 -138 LINE",
"159.813 -17.42 LINE",
"176 -18 LINE SMOOTH",
"212 -18 OFFCURVE",
"233 15 OFFCURVE",
"243 46 CURVE SMOOTH",
"303 261 LINE",
"293 272 LINE",
"248 241 OFFCURVE",
"193 196 OFFCURVE",
"146 135 CURVE",
"136 321 LINE"
);
}
);
width = 313;
}
);
unicode = 10F81;
script = "Old Uyghur";
category = Letter;
},
{
glyphname = "aleph-uyg.fina";
lastChange = "2021-12-09 08:59:54 +0000";
layers = (
{
layerId = m01;
paths = (
{
closed = 1;
nodes = (
"742 0 LINE SMOOTH",
"747 0 OFFCURVE",
"750 3 OFFCURVE",
"750 8 CURVE SMOOTH",
"750 87 LINE SMOOTH",
"750 92 OFFCURVE",
"747 95 OFFCURVE",
"742 95 CURVE SMOOTH",
"692 98 OFFCURVE",
"659 154 OFFCURVE",
"659 234 CURVE",
"650 234 LINE",
"595 179 LINE SMOOTH",
"580 164 OFFCURVE",
"558 143 OFFCURVE",
"558 95 CURVE",
"206 95 LINE SMOOTH",
"125 95 OFFCURVE",
"109 109 OFFCURVE",
"107 166 CURVE",
"98 166 LINE",
"31 98 LINE SMOOTH",
"20 86 OFFCURVE",
"10 73 OFFCURVE",
"10 52 CURVE SMOOTH",
"10 25 OFFCURVE",
"32 -13 OFFCURVE",
"81 -13 CURVE SMOOTH",
"98 -13 LINE",
"628 0 LINE"
);
}
);
width = 742;
}
);
script = "Old Uyghur";
category = Letter;
subCategory = Other;
userData = {
case = noCase;
};
},
{
glyphname = "aleph-uyg.init";
lastChange = "2021-12-09 08:59:54 +0000";
layers = (
{
layerId = m01;
paths = (
{
closed = 1;
nodes = (
"132 0 LINE",
"132 95 LINE",
"0 95 LINE SMOOTH",
"-5 95 OFFCURVE",
"-8 92 OFFCURVE",
"-8 87 CURVE SMOOTH",
"-8 8 LINE SMOOTH",
"-8 3 OFFCURVE",
"-5 0 OFFCURVE",
"0 0 CURVE SMOOTH"
);
},
{
closed = 1;
nodes = (
"210 65 LINE",
"209 73 LINE",
"143 97 OFFCURVE",
"105 146 OFFCURVE",
"105 233 CURVE",
"95 233 LINE",
"35 179 LINE SMOOTH",
"21 166 OFFCURVE",
"0 145 OFFCURVE",
"0 96 CURVE SMOOTH",
"0 54 OFFCURVE",
"29 12 OFFCURVE",
"122 -21 CURVE"
);
}
);
width = 220;
}
);
rightMetricsKey = "=aleph-uyg";
script = "Old Uyghur";
category = Letter;
userData = {
case = noCase;
};
},
{
glyphname = "aleph-uyg.medi";
lastChange = "2021-12-09 08:59:54 +0000";
layers = (
{
layerId = m01;
paths = (
{
closed = 1;
nodes = (
"150 0 LINE SMOOTH",
"155 0 OFFCURVE",
"158 3 OFFCURVE",
"158 8 CURVE SMOOTH",
"158 87 LINE SMOOTH",
"158 92 OFFCURVE",
"155 95 OFFCURVE",
"150 95 CURVE SMOOTH",
"124 98 OFFCURVE",
"115 158 OFFCURVE",
"115 237 CURVE",
"106 237 LINE",
"51 180 LINE SMOOTH",
"37 165 OFFCURVE",
"14 144 OFFCURVE",
"14 95 CURVE",
"0 95 LINE SMOOTH",
"-5 95 OFFCURVE",
"-8 92 OFFCURVE",
"-8 87 CURVE SMOOTH",
"-8 8 LINE SMOOTH",
"-8 3 OFFCURVE",
"-5 0 OFFCURVE",
"0 0 CURVE SMOOTH"
);
}
);
width = 150;
}
);
script = "Old Uyghur";
category = Letter;
userData = {
case = noCase;
};
},
{
glyphname = "beth-uyg.fina";
lastChange = "2021-12-09 08:59:54 +0000";
layers = (
{
layerId = m01;
paths = (
{
closed = 1;
nodes = (
"701 0 LINE SMOOTH",
"706 0 OFFCURVE",
"709 3 OFFCURVE",
"709 8 CURVE SMOOTH",
"709 87 LINE SMOOTH",
"709 92 OFFCURVE",
"706 95 OFFCURVE",
"701 95 CURVE SMOOTH",
"699 95 LINE",
"685 191 OFFCURVE",
"612 268 OFFCURVE",
"530 268 CURVE SMOOTH",
"493 268 OFFCURVE",
"472 253 OFFCURVE",
"456 237 CURVE SMOOTH",
"390 171 LINE",
"394 164 LINE",
"408 169 OFFCURVE",
"426 175 OFFCURVE",
"452 175 CURVE SMOOTH",
"511 175 OFFCURVE",
"557 142 OFFCURVE",
"584 95 CURVE",
"207 95 LINE SMOOTH",
"125 95 OFFCURVE",
"109 110 OFFCURVE",
"107 168 CURVE",
"99 168 LINE",
"30 100 LINE SMOOTH",
"17 88 OFFCURVE",
"10 74 OFFCURVE",
"10 53 CURVE SMOOTH",
"10 26 OFFCURVE",
"31 -13 OFFCURVE",
"82 -13 CURVE SMOOTH",
"99 -13 LINE",
"632 0 LINE"
);
}
);
width = 701;
}
);
script = "Old Uyghur";
category = Letter;
subCategory = Other;
},
{
glyphname = "beth-uyg.init";
lastChange = "2021-12-09 08:59:54 +0000";
layers = (
{
layerId = m01;
paths = (
{
closed = 1;
nodes = (
"314 -26 LINE",
"391 68 LINE",
"379 187 OFFCURVE",
"280 268 OFFCURVE",
"193 268 CURVE SMOOTH",
"156 268 OFFCURVE",
"135 253 OFFCURVE",
"120 237 CURVE SMOOTH",
"53 170 LINE",
"58 164 LINE",
"72 169 OFFCURVE",
"89 174 OFFCURVE",
"116 174 CURVE SMOOTH",
"172 174 OFFCURVE",
"232 155 OFFCURVE",
"263 95 CURVE",
"0 95 LINE SMOOTH",
"-5 95 OFFCURVE",
"-8 92 OFFCURVE",
"-8 87 CURVE SMOOTH",
"-8 8 LINE SMOOTH",
"-8 3 OFFCURVE",
"-5 0 OFFCURVE",
"0 0 CURVE SMOOTH",
"295 0 LINE",
"306 -26 LINE"
);
}
);
width = 401;
}
);
rightMetricsKey = "beth-uyg";
script = "Old Uyghur";
category = Letter;
},
{
glyphname = "beth-uyg.medi";
lastChange = "2021-12-09 08:59:54 +0000";
layers = (
{
layerId = m01;
paths = (
{
closed = 1;
nodes = (
"-8 8 LINE SMOOTH",
"-8 3 OFFCURVE",
"-5 0 OFFCURVE",
"0 0 CURVE SMOOTH",
"366 0 LINE SMOOTH",
"371 0 OFFCURVE",
"374 3 OFFCURVE",
"374 8 CURVE SMOOTH",
"374 87 LINE SMOOTH",
"374 92 OFFCURVE",
"371 95 OFFCURVE",
"366 95 CURVE SMOOTH",
"0 95 LINE SMOOTH",
"-5 95 OFFCURVE",
"-8 92 OFFCURVE",
"-8 87 CURVE SMOOTH"
);
},
{
closed = 1;
nodes = (
"366 95 LINE",
"351 191 OFFCURVE",
"279 268 OFFCURVE",
"196 268 CURVE SMOOTH",
"160 268 OFFCURVE",
"139 252 OFFCURVE",
"123 237 CURVE SMOOTH",
"56 171 LINE",
"60 164 LINE",
"75 169 OFFCURVE",
"92 174 OFFCURVE",
"119 174 CURVE SMOOTH",
"181 174 OFFCURVE",
"230 137 OFFCURVE",
"256 84 CURVE",
"253 11 LINE"
);
}
);
width = 366;
}
);
script = "Old Uyghur";
category = Letter;
},
{
glyphname = "finalHeth-uyg.fina";
lastChange = "2021-12-09 08:59:54 +0000";
layers = (
{
anchors = (
{
name = top;
position = "{652, 326}";
}
);
layerId = m01;
paths = (
{
closed = 1;
nodes = (
"98 -13 LINE",
"382 -1 LINE SMOOTH",
"429 1 OFFCURVE",
"454 18 OFFCURVE",
"483 41 CURVE SMOOTH",
"544 88 LINE",
"531 147 LINE",
"493 122 LINE SMOOTH",
"463 102 OFFCURVE",
"428 95 OFFCURVE",
"390 95 CURVE SMOOTH",
"206 95 LINE SMOOTH",
"124 95 OFFCURVE",
"108 111 OFFCURVE",
"106 168 CURVE",
"98 168 LINE",
"29 99 LINE SMOOTH",
"17 87 OFFCURVE",
"10 73 OFFCURVE",
"10 53 CURVE SMOOTH",
"10 25 OFFCURVE",
"31 -13 OFFCURVE",
"81 -13 CURVE SMOOTH"
);
},
{
closed = 1;
nodes = (
"704 0 LINE",
"735 0 LINE SMOOTH",
"740 0 OFFCURVE",
"743 3 OFFCURVE",
"743 8 CURVE SMOOTH",
"743 87 LINE SMOOTH",
"743 92 OFFCURVE",
"740 95 OFFCURVE",
"735 95 CURVE SMOOTH",
"704 95 LINE"
);
},
{
closed = 1;
nodes = (
"699 0 LINE SMOOTH",
"719 0 OFFCURVE",
"735 13 OFFCURVE",
"735 72 CURVE SMOOTH",
"735 148 OFFCURVE",
"713 223 OFFCURVE",
"697 264 CURVE",
"688 264 LINE",
"660 202 OFFCURVE",
"619 127 OFFCURVE",
"582 83 CURVE",
"616 82 LINE",
"615 106 OFFCURVE",
"606 209 OFFCURVE",
"606 302 CURVE",
"601 302 LINE",
"539 234 OFFCURVE",
"488 166 OFFCURVE",
"488 82 CURVE SMOOTH",
"488 42 OFFCURVE",
"528 0 OFFCURVE",
"596 0 CURVE SMOOTH"
);
}
);
width = 735;
}
);
script = "Old Uyghur";
category = Letter;
subCategory = Other;
},
{
glyphname = "gimelHeth-uyg.fina";
lastChange = "2021-12-09 08:59:54 +0000";
layers = (
{
anchors = (
{
name = top;
position = "{209, 326}";
}
);
layerId = m01;
paths = (
{
closed = 1;
nodes = (
"216 31 LINE",
"223 101 LINE",
"145 255 LINE",
"134 255 LINE",
"104 218 OFFCURVE",
"69 182 OFFCURVE",
"30 154 CURVE",
"74 63 LINE",
"86 33 OFFCURVE",
"86 19 OFFCURVE",
"60 -74 CURVE SMOOTH",
"5 -272 LINE",
"24 -278 LINE"
);
},
{
closed = 1;
nodes = (
"267 0 LINE",
"336 75 LINE",
"336 124 OFFCURVE",
"308 207 OFFCURVE",
"283 255 CURVE",
"275 255 LINE",
"251 193 OFFCURVE",
"222 137 OFFCURVE",
"187 90 CURVE",
"176 0 LINE"
);
},
{
closed = 1;
nodes = (
"265 0 LINE",
"336 0 LINE SMOOTH",
"341 0 OFFCURVE",
"344 3 OFFCURVE",
"344 8 CURVE SMOOTH",
"344 87 LINE SMOOTH",
"344 92 OFFCURVE",
"341 95 OFFCURVE",
"336 95 CURVE SMOOTH",
"265 95 LINE"
);
}
);
width = 336;
}
);
leftMetricsKey = "gimelHeth-uyg";
script = "Old Uyghur";
category = Letter;
subCategory = Other;
},
{
glyphname = "gimelHeth-uyg.init";
lastChange = "2021-12-09 08:59:54 +0000";
layers = (
{
anchors = (
{
name = top;
position = "{139, 326}";
}
);
layerId = m01;
paths = (
{
closed = 1;
nodes = (
"36 0 LINE SMOOTH",
"45 0 OFFCURVE",
"58 -4 OFFCURVE",
"63 -16 CURVE SMOOTH",
"113 -142 LINE",
"125 -142 LINE SMOOTH",
"160 -142 OFFCURVE",
"275 -30 OFFCURVE",
"275 77 CURVE SMOOTH",
"275 137 OFFCURVE",
"246 212 OFFCURVE",
"222 264 CURVE",
"211 264 LINE",
"194 212 OFFCURVE",
"169 157 OFFCURVE",
"139 115 CURVE",
"75 264 LINE",
"63 264 LINE",
"49 207 OFFCURVE",
"27 151 OFFCURVE",
"0 95 CURVE",
"-5 95 OFFCURVE",
"-8 92 OFFCURVE",
"-8 87 CURVE SMOOTH",
"-8 8 LINE SMOOTH",
"-8 3 OFFCURVE",
"-5 0 OFFCURVE",
"0 0 CURVE SMOOTH"
);
}
);
width = 290;
}
);
rightMetricsKey = "gimelHeth-uyg";
script = "Old Uyghur";
category = Letter;
},
{
glyphname = "gimelHeth-uyg.medi";
lastChange = "2021-12-09 08:59:54 +0000";
layers = (
{
anchors = (
{
name = top;
position = "{144, 326}";
}
);
layerId = m01;
paths = (
{
closed = 1;
nodes = (
"0 0 CURVE SMOOTH",
"13 0 OFFCURVE",
"20 1 OFFCURVE",
"28 9 CURVE SMOOTH",
"54 34 LINE",
"73 17 OFFCURVE",
"96 0 OFFCURVE",
"141 0 CURVE SMOOTH",
"271 0 LINE SMOOTH",
"276 0 OFFCURVE",
"279 3 OFFCURVE",
"279 8 CURVE SMOOTH",
"279 87 LINE SMOOTH",
"279 92 OFFCURVE",
"276 95 OFFCURVE",
"271 95 CURVE",
"266 146 OFFCURVE",
"241 217 OFFCURVE",
"219 262 CURVE",
"210 262 LINE",
"191 212 OFFCURVE",
"165 164 OFFCURVE",
"134 114 CURVE",
"77 262 LINE",
"65 262 LINE",
"51 206 OFFCURVE",
"29 151 OFFCURVE",
"0 95 CURVE",
"-5 95 OFFCURVE",
"-8 92 OFFCURVE",
"-8 87 CURVE SMOOTH",
"-8 8 LINE SMOOTH",
"-8 3 OFFCURVE",
"-5 0 OFFCURVE"
);
}
);
width = 271;
}
);
script = "Old Uyghur";
category = Letter;
},
{
glyphname = "kaph-uyg.alt";
lastChange = "2021-12-09 08:59:54 +0000";
layers = (
{
layerId = m01;
paths = (
{
closed = 1;
nodes = (
"-50 139 OFFCURVE",
"65 0 OFFCURVE",
"198 0 CURVE SMOOTH",
"397 0 LINE SMOOTH",
"402 0 OFFCURVE",
"405 3 OFFCURVE",
"405 8 CURVE SMOOTH",
"405 87 LINE SMOOTH",
"405 92 OFFCURVE",
"402 95 OFFCURVE",
"397 95 CURVE",
"397 148 OFFCURVE",
"384 209 OFFCURVE",
"366 260 CURVE",
"353 260 LINE",
"312 138 LINE",
"301 189 OFFCURVE",
"284 241 OFFCURVE",
"259 291 CURVE",
"137 204 LINE",
"137 198 LINE",
"181 171 OFFCURVE",
"219 132 OFFCURVE",
"243 95 CURVE",
"223 95 LINE SMOOTH",
"73 95 OFFCURVE",
"-8 244 OFFCURVE",
"-21 464 CURVE",
"-33 464 LINE",
"-50 427 LINE"
);
}
);
width = 397;
}
);
script = "Old Uyghur";
category = Letter;
subCategory = Other;
},
{
glyphname = "kaph-uyg.fina";
lastChange = "2021-12-09 08:59:54 +0000";
layers = (
{
layerId = m01;
paths = (
{
closed = 1;
nodes = (
"463 197 LINE",
"512 166 OFFCURVE",
"556 121 OFFCURVE",
"577 79 CURVE",
"557 0 LINE",
"648 0 LINE SMOOTH",
"694 0 OFFCURVE",
"720 40 OFFCURVE",
"720 96 CURVE SMOOTH",
"720 147 OFFCURVE",
"708 208 OFFCURVE",
"691 259 CURVE",
"677 259 LINE",
"636 138 LINE",
"626 188 OFFCURVE",
"609 239 OFFCURVE",
"584 289 CURVE",
"463 203 LINE"
);
},
{
closed = 1;
nodes = (
"720 0 LINE SMOOTH",
"725 0 OFFCURVE",
"728 3 OFFCURVE",
"728 8 CURVE SMOOTH",
"728 87 LINE SMOOTH",
"728 92 OFFCURVE",
"725 95 OFFCURVE",
"720 95 CURVE SMOOTH",
"205 95 LINE SMOOTH",
"124 95 OFFCURVE",
"108 110 OFFCURVE",
"105 166 CURVE",
"98 166 LINE",
"31 98 LINE SMOOTH",
"19 87 OFFCURVE",
"10 74 OFFCURVE",
"10 52 CURVE SMOOTH",
"10 25 OFFCURVE",
"32 -12 OFFCURVE",
"81 -12 CURVE SMOOTH",
"98 -12 LINE",
"626 0 LINE"
);
}
);
width = 720;
}
);
script = "Old Uyghur";
category = Letter;
subCategory = Other;
},
{
glyphname = "kaph-uyg.fina_lesh-uyg.fina";
lastChange = "2021-12-09 08:59:54 +0000";
layers = (
{
anchors = (
{
name = caret_1;
position = "{323, 0}";
}
);
components = (
{
name = "kaph-uyg.medi";
transform = "{1, 0, 0, 1, 302, 0}";
}
);
layerId = m01;
paths = (
{
closed = 1;
nodes = (
"126 318 LINE",
"86 277 OFFCURVE",
"10 173 OFFCURVE",
"10 124 CURVE SMOOTH",
"10 43 OFFCURVE",
"93 -8 OFFCURVE",
"187 -16 CURVE SMOOTH",
"222 -19 OFFCURVE",
"228 16 OFFCURVE",
"237 47 CURVE SMOOTH",
"297 257 LINE",
"288 268 LINE",
"230 228 OFFCURVE",
"155 165 OFFCURVE",
"102 72 CURVE",
"147 72 LINE",
"146 95 LINE",
"133 315 LINE"
);
},
{
closed = 1;
nodes = (
"315 -220 LINE",
"311 -214 LINE",
"169 -214 LINE",
"177 -235 LINE",
"191 -92 LINE",
"151 -60 LINE",
"95 -242 LINE SMOOTH",
"90 -257 OFFCURVE",
"87 -267 OFFCURVE",
"87 -275 CURVE SMOOTH",
"87 -297 OFFCURVE",
"94 -307 OFFCURVE",
"125 -307 CURVE SMOOTH",
"161 -307 OFFCURVE",
"218 -314 OFFCURVE",
"257 -327 CURVE",
"265 -322 LINE"
);
}
);
width = 661;
}
);
leftMetricsKey = "lesh-uyg";
script = "Old Uyghur";
category = Letter;
},
{
glyphname = "kaph-uyg.fina_waw-uyg.fina";
lastChange = "2021-12-09 08:59:54 +0000";
layers = (
{
anchors = (
{
name = caret_1;
position = "{306, 0}";
}
);
layerId = m01;
paths = (
{
closed = 1;
nodes = (
"524 0 LINE",
"648 0 LINE SMOOTH",
"653 0 OFFCURVE",
"656 3 OFFCURVE",
"656 8 CURVE SMOOTH",
"656 87 LINE SMOOTH",
"656 92 OFFCURVE",
"653 95 OFFCURVE",
"648 95 CURVE SMOOTH",
"538 95 LINE"
);
},
{
closed = 1;
nodes = (
"549 97 LINE",
"482 127 OFFCURVE",
"439 208 OFFCURVE",
"401 275 CURVE",
"395 275 LINE",
"302 184 LINE",
"325 145 OFFCURVE",
"394 64 OFFCURVE",
"435 46 CURVE",
"435 0 LINE"
);
},
{
closed = 1;
nodes = (
"358 -154 OFFCURVE",
"643 41 OFFCURVE",
"643 116 CURVE SMOOTH",
"643 122 OFFCURVE",
"644 130 OFFCURVE",
"641 143 CURVE SMOOTH",
"606 273 LINE",
"591 273 LINE",
"583 232 OFFCURVE",
"552 168 OFFCURVE",
"517 130 CURVE SMOOTH",
"451 58 LINE",
"366 -8 OFFCURVE",
"268 -48 OFFCURVE",
"185 -48 CURVE SMOOTH",
"113 -48 OFFCURVE",
"82 -31 OFFCURVE",
"64 0 CURVE",
"215 0 LINE SMOOTH",
"241 0 OFFCURVE",
"288 80 OFFCURVE",
"288 115 CURVE SMOOTH",
"288 166 OFFCURVE",
"211 265 OFFCURVE",
"129 265 CURVE SMOOTH",
"62 265 OFFCURVE",
"10 202 OFFCURVE",
"10 58 CURVE SMOOTH",
"10 -59 OFFCURVE",
"68 -154 OFFCURVE",
"178 -154 CURVE SMOOTH"
);
},
{
closed = 1;
nodes = (
"81 147 OFFCURVE",
"98 168 OFFCURVE",
"136 168 CURVE SMOOTH",
"175 168 OFFCURVE",
"221 143 OFFCURVE",
"236 95 CURVE",
"64 95 LINE"
);
}
);
width = 648;
}
);
script = "Old Uyghur";
category = Letter;
},
{
glyphname = "kaph-uyg.init";
lastChange = "2021-12-09 08:59:54 +0000";
layers = (
{
layerId = m01;
paths = (
{
closed = 1;
nodes = (
"255 95 LINE",
"188 126 OFFCURVE",
"143 208 OFFCURVE",
"105 277 CURVE",
"98 277 LINE",
"5 185 LINE",
"28 145 OFFCURVE",
"97 64 OFFCURVE",
"139 45 CURVE",
"139 0 LINE"
);
},
{
closed = 1;
nodes = (
"63 -157 OFFCURVE",
"350 40 OFFCURVE",
"350 117 CURVE SMOOTH",
"350 121 OFFCURVE",
"350 130 OFFCURVE",
"347 142 CURVE SMOOTH",
"311 275 LINE",
"298 275 LINE",
"290 234 OFFCURVE",
"259 168 OFFCURVE",
"222 130 CURVE SMOOTH",
"157 58 LINE",
"72 -8 OFFCURVE",
"-79 -49 OFFCURVE",
"-113 -49 CURVE SMOOTH",
"-157 -49 OFFCURVE",
"-157 4 OFFCURVE",
"-157 45 CURVE",
"-165 45 LINE",
"-218 -16 LINE SMOOTH",
"-245 -49 OFFCURVE",
"-255 -75 OFFCURVE",
"-255 -95 CURVE SMOOTH",
"-255 -125 OFFCURVE",
"-231 -157 OFFCURVE",
"-170 -157 CURVE SMOOTH"
);
}
);
width = 360;
}
);
script = "Old Uyghur";
category = Letter;
},
{
glyphname = "kaph-uyg.init_lesh-uyg.init";
lastChange = "2021-12-09 08:59:54 +0000";
layers = (
{
anchors = (
{
name = caret_1;
position = "{279, 0}";
}
);
components = (
{
name = "kaph-uyg.init";
transform = "{1, 0, 0, 1, 290, 0}";
}
);
layerId = m01;
paths = (
{
closed = 1;
nodes = (
"269 86 LINE",
"180 120 OFFCURVE",
"147 181 OFFCURVE",
"114 237 CURVE",
"100 237 LINE",
"90 178 OFFCURVE",
"68 131 OFFCURVE",
"38 95 CURVE",
"0 95 LINE SMOOTH",
"-5 95 OFFCURVE",
"-8 92 OFFCURVE",
"-8 87 CURVE SMOOTH",
"-8 8 LINE SMOOTH",
"-8 3 OFFCURVE",
"-5 0 OFFCURVE",
"0 0 CURVE SMOOTH",
"200 0 LINE SMOOTH",
"237 0 OFFCURVE",
"247 29 OFFCURVE",
"271 77 CURVE"
);
},
{
closed = 1;
nodes = (
"292 -216 LINE",
"288 -210 LINE",
"146 -210 LINE",
"154 -231 LINE",
"168 -88 LINE",
"128 -56 LINE",
"72 -238 LINE SMOOTH",
"67 -253 OFFCURVE",
"64 -263 OFFCURVE",
"64 -271 CURVE SMOOTH",
"64 -293 OFFCURVE",
"71 -303 OFFCURVE",
"102 -303 CURVE SMOOTH",
"138 -303 OFFCURVE",
"195 -310 OFFCURVE",
"234 -323 CURVE",
"242 -318 LINE"
);
}
);
width = 650;
}
);
script = "Old Uyghur";
category = Letter;
},
{
glyphname = "kaph-uyg.medi";
lastChange = "2021-12-09 08:59:54 +0000";
layers = (
{
layerId = m01;
paths = (
{
closed = 1;
nodes = (
"230 0 LINE",
"359 0 LINE SMOOTH",
"364 0 OFFCURVE",
"367 3 OFFCURVE",
"367 8 CURVE SMOOTH",
"367 87 LINE SMOOTH",
"367 92 OFFCURVE",
"364 95 OFFCURVE",
"359 95 CURVE SMOOTH",
"243 95 LINE"
);
},
{
closed = 1;
nodes = (
"255 97 LINE",
"188 127 OFFCURVE",
"143 208 OFFCURVE",
"106 276 CURVE",
"99 276 LINE",
"6 185 LINE",
"29 144 OFFCURVE",
"98 64 OFFCURVE",
"140 46 CURVE",
"140 0 LINE"
);
},
{
closed = 1;
nodes = (
"64 -156 OFFCURVE",
"351 40 OFFCURVE",
"351 116 CURVE SMOOTH",
"351 123 OFFCURVE",
"350 131 OFFCURVE",
"347 142 CURVE SMOOTH",
"311 274 LINE",
"298 274 LINE",
"290 234 OFFCURVE",
"259 169 OFFCURVE",
"224 131 CURVE SMOOTH",
"156 58 LINE",
"72 -8 OFFCURVE",
"-79 -50 OFFCURVE",
"-112 -50 CURVE SMOOTH",
"-155 -50 OFFCURVE",
"-155 5 OFFCURVE",
"-155 46 CURVE",
"-164 46 LINE",
"-217 -16 LINE SMOOTH",
"-245 -49 OFFCURVE",
"-255 -73 OFFCURVE",
"-255 -94 CURVE SMOOTH",
"-255 -125 OFFCURVE",
"-230 -156 OFFCURVE",
"-171 -156 CURVE SMOOTH"
);
}
);
width = 359;
}
);
leftMetricsKey = "kaph-uyg.init";
script = "Old Uyghur";
category = Letter;
},
{
glyphname = "kaph-uyg.medi_lesh-uyg.medi";
lastChange = "2021-12-09 08:59:54 +0000";
layers = (
{
anchors = (
{
name = caret_1;
position = "{309, 0}";
}
);
components = (
{
locked = 1;
name = "kaph-uyg.medi";
transform = "{1, 0, 0, 1, 300, 0}";
}
);
layerId = m01;
paths = (
{
closed = 1;
nodes = (
"269 86 LINE",
"180 120 OFFCURVE",
"147 181 OFFCURVE",
"114 237 CURVE",
"100 237 LINE",
"90 178 OFFCURVE",
"68 131 OFFCURVE",
"38 95 CURVE",
"0 95 LINE SMOOTH",
"-5 95 OFFCURVE",
"-8 92 OFFCURVE",
"-8 87 CURVE SMOOTH",
"-8 8 LINE SMOOTH",
"-8 3 OFFCURVE",
"-5 0 OFFCURVE",
"0 0 CURVE SMOOTH",
"200 0 LINE SMOOTH",
"237 0 OFFCURVE",
"247 29 OFFCURVE",
"271 77 CURVE"
);
},
{
closed = 1;
nodes = (
"292 -216 LINE",
"288 -210 LINE",
"146 -210 LINE",
"154 -231 LINE",
"168 -88 LINE",
"128 -56 LINE",
"72 -238 LINE SMOOTH",
"67 -253 OFFCURVE",
"64 -263 OFFCURVE",
"64 -271 CURVE SMOOTH",
"64 -293 OFFCURVE",
"71 -303 OFFCURVE",
"102 -303 CURVE SMOOTH",
"138 -303 OFFCURVE",
"195 -310 OFFCURVE",
"234 -323 CURVE",
"242 -318 LINE"
);
}
);
width = 659;
}
);
script = "Old Uyghur";
category = Letter;
},
{
glyphname = "kaph-uyg.medi_waw-uyg.medi";
lastChange = "2021-12-09 08:59:54 +0000";
layers = (
{
anchors = (
{
name = caret_1;
position = "{292, 0}";
}
);
layerId = m01;
paths = (
{
closed = 1;
nodes = (
"515 0 LINE",
"637 0 LINE SMOOTH",
"642 0 OFFCURVE",
"645 3 OFFCURVE",
"645 8 CURVE SMOOTH",
"645 87 LINE SMOOTH",
"645 92 OFFCURVE",
"642 95 OFFCURVE",
"637 95 CURVE SMOOTH",
"528 95 LINE"
);
},
{
closed = 1;
nodes = (
"539 97 LINE",
"472 129 OFFCURVE",
"428 209 OFFCURVE",
"392 276 CURVE",
"384 276 LINE",
"292 184 LINE",
"315 146 OFFCURVE",
"383 64 OFFCURVE",
"425 46 CURVE",
"425 0 LINE"
);
},
{
closed = 1;
nodes = (
"348 -153 OFFCURVE",
"633 41 OFFCURVE",
"633 118 CURVE SMOOTH",
"633 123 OFFCURVE",
"633 132 OFFCURVE",
"630 144 CURVE SMOOTH",
"595 274 LINE",
"581 274 LINE",
"573 234 OFFCURVE",
"542 169 OFFCURVE",
"508 132 CURVE SMOOTH",
"441 58 LINE",
"355 -8 OFFCURVE",
"258 -47 OFFCURVE",
"175 -47 CURVE SMOOTH",
"104 -47 OFFCURVE",
"72 -30 OFFCURVE",
"53 0 CURVE",
"206 0 LINE SMOOTH",
"230 0 OFFCURVE",
"278 80 OFFCURVE",
"278 117 CURVE SMOOTH",
"278 167 OFFCURVE",
"202 266 OFFCURVE",
"120 266 CURVE SMOOTH",
"52 266 OFFCURVE",
"2 203 OFFCURVE",
"2 58 CURVE SMOOTH",
"2 -58 OFFCURVE",
"57 -153 OFFCURVE",
"168 -153 CURVE SMOOTH"
);
},
{
closed = 1;
nodes = (
"72 148 OFFCURVE",
"89 169 OFFCURVE",
"126 169 CURVE SMOOTH",
"164 169 OFFCURVE",
"211 144 OFFCURVE",
"226 95 CURVE",
"52 95 LINE"
);
},
{
closed = 1;
nodes = (
"0 95 LINE SMOOTH",
"-5 95 OFFCURVE",
"-8 92 OFFCURVE",
"-8 87 CURVE SMOOTH",
"-8 8 LINE SMOOTH",
"-8 3 OFFCURVE",
"-5 0 OFFCURVE",
"0 0 CURVE SMOOTH",
"123 0 LINE",
"109 95 LINE"
);
}
);
width = 637;
}
);
script = "Old Uyghur";
category = Letter;
},
{
glyphname = "lamedh-uyg.fina";
lastChange = "2021-12-09 08:59:54 +0000";
layers = (
{
layerId = m01;
paths = (
{
closed = 1;
nodes = (
"706 0 LINE",
"743 74 LINE",
"786 87 LINE",
"664 223 OFFCURVE",
"607 374 OFFCURVE",
"607 502 CURVE SMOOTH",
"607 548 OFFCURVE",
"611 579 OFFCURVE",
"620 614 CURVE",
"610 617 LINE",
"464 527 OFFCURVE",
"387 470 OFFCURVE",
"388 382 CURVE SMOOTH",
"388 355 OFFCURVE",
"397 335 OFFCURVE",
"405 328 CURVE",
"410 328 LINE",
"517 356 LINE",
"505 377 OFFCURVE",
"497 404 OFFCURVE",
"497 420 CURVE SMOOTH",
"497 451 OFFCURVE",
"510 488 OFFCURVE",
"543 515 CURVE",
"556 510 LINE",
"551 489 OFFCURVE",
"546 447 OFFCURVE",
"546 407 CURVE SMOOTH",
"546 263 OFFCURVE",
"628 125 OFFCURVE",
"670 70 CURVE",
"645 0 LINE"
);
},
{
closed = 1;
nodes = (
"99 -14 LINE",
"634 0 LINE",
"787 0 LINE SMOOTH",
"792 0 OFFCURVE",
"795 3 OFFCURVE",
"795 8 CURVE SMOOTH",
"795 87 LINE SMOOTH",
"795 92 OFFCURVE",
"792 95 OFFCURVE",
"787 95 CURVE SMOOTH",
"207 95 LINE SMOOTH",
"125 95 OFFCURVE",
"109 110 OFFCURVE",
"107 167 CURVE",
"99 167 LINE",
"32 99 LINE SMOOTH",
"19 85 OFFCURVE",
"10 73 OFFCURVE",
"10 52 CURVE SMOOTH",
"10 24 OFFCURVE",
"33 -14 OFFCURVE",
"83 -14 CURVE SMOOTH"
);
}
);
width = 787;
}
);
script = "Old Uyghur";
category = Letter;
subCategory = Other;
},
{
glyphname = "lamedh-uyg.init";
lastChange = "2021-12-09 08:59:54 +0000";
layers = (
{
layerId = m01;
paths = (
{
closed = 1;
nodes = (
"288 0 LINE",
"355 95 LINE",
"0 95 LINE SMOOTH",
"-5 95 OFFCURVE",
"-8 92 OFFCURVE",
"-8 87 CURVE SMOOTH",
"-8 8 LINE SMOOTH",
"-8 3 OFFCURVE",
"-5 0 OFFCURVE",
"0 0 CURVE SMOOTH"
);
},
{
closed = 1;
nodes = (
"227 617 LINE",
"81 526 OFFCURVE",
"6 470 OFFCURVE",
"6 382 CURVE SMOOTH",
"6 355 OFFCURVE",
"15 336 OFFCURVE",
"23 329 CURVE",
"27 329 LINE",
"134 356 LINE",
"122 377 OFFCURVE",
"113 405 OFFCURVE",
"113 420 CURVE SMOOTH",
"113 451 OFFCURVE",
"127 487 OFFCURVE",
"160 515 CURVE",
"173 510 LINE",
"168 488 OFFCURVE",
"163 447 OFFCURVE",
"163 407 CURVE SMOOTH",
"163 263 OFFCURVE",
"245 125 OFFCURVE",
"287 70 CURVE",
"261 0 LINE",
"306 0 LINE SMOOTH",
"338 0 OFFCURVE",
"388 95 OFFCURVE",
"388 128 CURVE SMOOTH",
"388 136 LINE",
"281 223 OFFCURVE",
"223 373 OFFCURVE",
"223 502 CURVE SMOOTH",
"223 549 OFFCURVE",
"228 579 OFFCURVE",
"237 614 CURVE"
);
}
);
width = 398;
}
);
rightMetricsKey = "lamedh-uyg";
script = "Old Uyghur";
category = Letter;
},
{
glyphname = "lamedh-uyg.medi";
lastChange = "2021-12-09 08:59:54 +0000";
layers = (
{
layerId = m01;
paths = (
{
closed = 1;
nodes = (
"303 0 LINE SMOOTH",
"308 0 OFFCURVE",
"311 3 OFFCURVE",
"311 8 CURVE SMOOTH",
"311 87 LINE SMOOTH",
"311 92 OFFCURVE",
"308 95 OFFCURVE",
"303 95 CURVE SMOOTH",
"0 95 LINE SMOOTH",
"-5 95 OFFCURVE",
"-8 92 OFFCURVE",
"-8 87 CURVE SMOOTH",
"-8 8 LINE SMOOTH",
"-8 3 OFFCURVE",
"-5 0 OFFCURVE",
"0 0 CURVE SMOOTH"
);
},
{
closed = 1;
nodes = (
"221 0 LINE",
"257 74 LINE",
"300 88 LINE",
"178 224 OFFCURVE",
"120 374 OFFCURVE",
"120 503 CURVE SMOOTH",
"120 550 OFFCURVE",
"125 581 OFFCURVE",
"134 616 CURVE",
"124 619 LINE",
"-22 528 OFFCURVE",
"-99 471 OFFCURVE",
"-98 382 CURVE SMOOTH",
"-98 356 OFFCURVE",
"-89 337 OFFCURVE",
"-81 329 CURVE",
"-76 329 LINE",
"31 357 LINE",
"19 378 OFFCURVE",
"10 406 OFFCURVE",
"10 421 CURVE SMOOTH",
"10 452 OFFCURVE",
"24 489 OFFCURVE",
"57 516 CURVE",
"70 511 LINE",
"65 490 OFFCURVE",
"60 448 OFFCURVE",
"60 408 CURVE SMOOTH",
"60 264 OFFCURVE",
"143 126 OFFCURVE",
"184 71 CURVE",
"159 0 LINE"
);
}
);
width = 303;
}
);
script = "Old Uyghur";
category = Letter;
},
{
glyphname = "lesh-uyg.fina";
lastChange = "2021-12-09 08:59:54 +0000";
layers = (
{
guideLines = (
{
angle = 90;
position = "{410, 93}";
}
);
layerId = m01;
paths = (
{
closed = 1;
nodes = (
"278 -124 LINE",
"273 -117 LINE",
"131 -117 LINE",
"140 -139 LINE",
"152 4 LINE",
"113 37 LINE",
"54 -146 LINE SMOOTH",
"49 -161 OFFCURVE",
"48 -173 OFFCURVE",
"48 -180 CURVE SMOOTH",
"48 -203 OFFCURVE",
"54 -213 OFFCURVE",
"84 -213 CURVE SMOOTH",
"122 -213 OFFCURVE",
"179 -220 OFFCURVE",
"220 -232 CURVE",
"227 -229 LINE"
);
},
{
closed = 1;
nodes = (
"167 0 LINE",
"283 0 LINE SMOOTH",
"288 0 OFFCURVE",
"291 3 OFFCURVE",
"291 8 CURVE SMOOTH",
"291 87 LINE SMOOTH",
"291 92 OFFCURVE",
"288 95 OFFCURVE",
"283 95 CURVE SMOOTH",
"209 95 LINE"
);
},
{
closed = 1;
nodes = (
"122 305 LINE",
"84 267 OFFCURVE",
"15 170 OFFCURVE",
"15 123 CURVE SMOOTH",
"15 48 OFFCURVE",
"79 0 OFFCURVE",
"167 0 CURVE SMOOTH",
"199 0 OFFCURVE",
"218 21 OFFCURVE",
"227 52 CURVE SMOOTH",
"283 248 LINE",
"273 259 LINE",
"220 220 OFFCURVE",
"149 162 OFFCURVE",
"101 75 CURVE",
"142 75 LINE",
"128 303 LINE"
);
}
);
width = 283;
}
);
script = "Old Uyghur";
category = Letter;
subCategory = Other;
},
{
glyphname = "lesh-uyg.init";
lastChange = "2021-12-09 08:59:54 +0000";
layers = (
{
layerId = m01;
paths = (
{
closed = 1;
nodes = (
"230 -123 LINE",
"226 -117 LINE",
"84 -117 LINE",
"92 -138 LINE",
"106 5 LINE",
"66 37 LINE",
"10 -145 LINE SMOOTH",
"5 -160 OFFCURVE",
"2 -170 OFFCURVE",
"2 -178 CURVE SMOOTH",
"2 -200 OFFCURVE",
"9 -210 OFFCURVE",
"40 -210 CURVE SMOOTH",
"76 -210 OFFCURVE",
"133 -217 OFFCURVE",
"172 -230 CURVE",
"180 -225 LINE"
);
},
{
closed = 1;
nodes = (
"278 85 LINE",
"188 118 OFFCURVE",
"156 180 OFFCURVE",
"123 236 CURVE",
"108 236 LINE",
"97 177 OFFCURVE",
"76 131 OFFCURVE",
"46 95 CURVE",
"0 95 LINE SMOOTH",
"-5 95 OFFCURVE",
"-8 92 OFFCURVE",
"-8 87 CURVE SMOOTH",
"-8 8 LINE SMOOTH",
"-8 3 OFFCURVE",
"-5 0 OFFCURVE",
"0 0 CURVE SMOOTH",
"209 0 LINE SMOOTH",
"246 0 OFFCURVE",
"255 29 OFFCURVE",
"280 78 CURVE"
);
}
);
width = 290;
}
);
script = "Old Uyghur";
category = Letter;
},
{
glyphname = "lesh-uyg.medi";
lastChange = "2021-12-09 08:59:54 +0000";
layers = (
{
layerId = m01;
paths = (
{
closed = 1;
nodes = (
"326 0 LINE SMOOTH",
"331 0 OFFCURVE",
"334 3 OFFCURVE",
"334 8 CURVE SMOOTH",
"334 87 LINE SMOOTH",
"334 92 OFFCURVE",
"331 95 OFFCURVE",
"326 95 CURVE",
"301 134 OFFCURVE",
"276 202 OFFCURVE",
"270 256 CURVE",
"257 256 LINE",
"180 88 LINE",
"154 128 OFFCURVE",
"130 181 OFFCURVE",
"118 235 CURVE",
"104 235 LINE",
"42 95 LINE",
"0 95 LINE SMOOTH",
"-5 95 OFFCURVE",
"-8 92 OFFCURVE",
"-8 87 CURVE SMOOTH",
"-8 8 LINE SMOOTH",
"-8 3 OFFCURVE",
"-5 0 OFFCURVE",
"0 0 CURVE SMOOTH"
);
},
{
closed = 1;
nodes = (
"230 -123 LINE",
"226 -117 LINE",
"84 -117 LINE",
"92 -138 LINE",
"106 5 LINE",
"66 37 LINE",
"10 -145 LINE SMOOTH",
"5 -160 OFFCURVE",
"2 -170 OFFCURVE",
"2 -178 CURVE SMOOTH",
"2 -200 OFFCURVE",
"9 -210 OFFCURVE",
"40 -210 CURVE SMOOTH",
"76 -210 OFFCURVE",
"133 -217 OFFCURVE",
"172 -230 CURVE",
"180 -225 LINE"
);
}
);
width = 326;
}
);
script = "Old Uyghur";
category = Letter;
},
{
glyphname = "mem-uyg.fina";
lastChange = "2021-12-09 08:59:54 +0000";
layers = (
{
layerId = m01;
paths = (
{
closed = 1;
nodes = (
"168 0 LINE",
"421 0 LINE SMOOTH",
"426 0 OFFCURVE",
"428 3 OFFCURVE",
"428 8 CURVE SMOOTH",
"428 87 LINE SMOOTH",
"428 92 OFFCURVE",
"426 95 OFFCURVE",
"421 95 CURVE SMOOTH",
"168 95 LINE"
);
},
{
closed = 1;
nodes = (
"338 61 LINE",
"422 74 LINE",
"332 239 LINE",
"275 328 LINE",
"251 227 LINE"
);
},
{
closed = 1;
nodes = (
"15 221 LINE",
"223 221 LINE",
"251 240 LINE",
"302 221 LINE",
"421 221 LINE",
"421 277 LINE",
"15 277 LINE"
);
},
{
closed = 1;
nodes = (
"270 366 LINE",
"184 312 LINE",
"163 208 LINE SMOOTH",
"115 -29 OFFCURVE",
"14 -188 OFFCURVE",
"-50 -270 CURVE",
"-33 -280 LINE",
"49 -208 OFFCURVE",
"146 -86 OFFCURVE",
"210 29 CURVE",
"251 227 LINE",
"277 292 LINE",
"277 363 LINE"
);
}
);
width = 420;
}
);
script = "Old Uyghur";
category = Letter;
subCategory = Other;
},
{
glyphname = "mem-uyg.init";
lastChange = "2021-12-09 08:59:54 +0000";
layers = (
{
layerId = m01;
paths = (
{
closed = 1;
nodes = (
"420 101 LINE",
"416 106 LINE",
"394 102 OFFCURVE",
"300 95 OFFCURVE",
"224 95 CURVE SMOOTH",
"0 95 LINE SMOOTH",
"-5 95 OFFCURVE",
"-8 92 OFFCURVE",
"-8 87 CURVE SMOOTH",
"-8 8 LINE SMOOTH",
"-8 3 OFFCURVE",
"-5 0 OFFCURVE",
"0 0 CURVE SMOOTH",
"246 0 LINE SMOOTH",
"288 0 OFFCURVE",
"336 -8 OFFCURVE",
"358 -10 CURVE"
);
},
{
closed = 1;
nodes = (
"146 39 LINE",
"225 76 LINE",
"225 125 OFFCURVE",
"197 211 OFFCURVE",
"170 262 CURVE",
"162 262 LINE",
"138 194 OFFCURVE",
"107 138 OFFCURVE",
"72 92 CURVE"
);
},
{
closed = 1;
nodes = (
"-254 -214 OFFCURVE",
"-223 -206 OFFCURVE",
"-181 -203 CURVE",
"236 -150 LINE",
"269 -144 OFFCURVE",
"285 -113 OFFCURVE",
"316 -67 CURVE",
"316 -62 LINE",
"283 -44 OFFCURVE",
"254 -21 OFFCURVE",
"236 9 CURVE",
"161 0 LINE",
"198 -67 LINE",
"-168 -103 LINE SMOOTH",
"-213 -108 OFFCURVE",
"-231 -117 OFFCURVE",
"-247 -142 CURVE",
"-285 -213 LINE",
"-282 -223 LINE"
);
}
);
width = 430;
}
);
rightMetricsKey = "mem-uyg";
script = "Old Uyghur";
category = Letter;
},
{
glyphname = "mem-uyg.medi";
lastChange = "2021-12-09 09:07:59 +0000";
layers = (
{
layerId = m01;
paths = (
{
closed = 1;
nodes = (
"169 53 LINE",
"167 -69 LINE",
"255 -17 LINE",
"264 76 LINE",
"112 91 LINE"
);
},
{
closed = 1;
nodes = (
"421 0 OFFCURVE",
"423 3 OFFCURVE",
"423 8 CURVE SMOOTH",
"423 87 LINE SMOOTH",
"423 92 OFFCURVE",
"420 95 OFFCURVE",
"415 95 CURVE SMOOTH",
"313 95 OFFCURVE",
"41 -31 OFFCURVE",
"-52 -114 CURVE",
"-4 -201 LINE",
"9 -201 LINE",
"79 -130 OFFCURVE",
"305 0 OFFCURVE",
"416 0 CURVE SMOOTH"
);
},
{
closed = 1;
nodes = (
"187 40 LINE",
"264 76 LINE",
"264 126 OFFCURVE",
"235 210 OFFCURVE",
"210 261 CURVE",
"201 261 LINE",
"177 194 OFFCURVE",
"146 138 OFFCURVE",
"112 91 CURVE"
);
},
{
closed = 1;
nodes = (
"328 143 LINE",
"218 104 OFFCURVE",
"111 95 OFFCURVE",
"0 95 CURVE SMOOTH",
"-5 95 OFFCURVE",
"-8 92 OFFCURVE",
"-8 87 CURVE SMOOTH",
"-8 8 LINE SMOOTH",
"-8 3 OFFCURVE",
"-5 0 OFFCURVE",
"0 0 CURVE SMOOTH",
"117 0 OFFCURVE",
"223 21 OFFCURVE",
"285 37 CURVE",
"301 71 OFFCURVE",
"317 106 OFFCURVE",
"333 139 CURVE"
);
}
);
width = 415;
}
);
script = "Old Uyghur";
category = Letter;
},
{
glyphname = "nun-uyg.fina";
lastChange = "2021-12-09 08:59:54 +0000";
layers = (
{
anchors = (
{
name = top;
position = "{660, 326}";
}
);
layerId = m01;
paths = (
{
closed = 1;
nodes = (
"730 0 LINE SMOOTH",
"735 0 OFFCURVE",
"738 3 OFFCURVE",
"738 8 CURVE SMOOTH",
"738 87 LINE SMOOTH",
"738 92 OFFCURVE",
"735 95 OFFCURVE",
"730 95 CURVE",
"725 139 OFFCURVE",
"703 186 OFFCURVE",
"682 221 CURVE",
"674 221 LINE",
"652 174 OFFCURVE",
"625 131 OFFCURVE",
"591 95 CURVE",
"206 95 LINE SMOOTH",
"124 95 OFFCURVE",
"109 109 OFFCURVE",
"107 167 CURVE",
"98 167 LINE",
"30 99 LINE SMOOTH",
"17 86 OFFCURVE",
"10 72 OFFCURVE",
"10 52 CURVE SMOOTH",
"10 26 OFFCURVE",
"31 -13 OFFCURVE",
"81 -13 CURVE SMOOTH",
"98 -13 LINE",
"628 0 LINE"
);
}
);
width = 730;
}
);
script = "Old Uyghur";
category = Letter;
subCategory = Other;
},
{
glyphname = "nun-uyg.init";
lastChange = "2021-12-09 08:59:54 +0000";
layers = (
{
anchors = (
{
name = top;
position = "{65, 326}";
}
);
layerId = m01;
paths = (
{
closed = 1;
nodes = (
"-8 8 LINE SMOOTH",
"-8 3 OFFCURVE",
"-5 0 OFFCURVE",
"0 0 CURVE SMOOTH",
"77 0 LINE",
"77 95 LINE",
"0 95 LINE SMOOTH",
"-5 95 OFFCURVE",
"-8 92 OFFCURVE",
"-8 87 CURVE SMOOTH"
);
},
{
closed = 1;
nodes = (
"87 0 LINE SMOOTH",
"131 0 OFFCURVE",
"154 31 OFFCURVE",
"154 74 CURVE SMOOTH",
"154 137 OFFCURVE",
"127 195 OFFCURVE",
"102 236 CURVE",
"94 236 LINE",
"71 185 OFFCURVE",
"42 126 OFFCURVE",
"6 89 CURVE",
"57 0 LINE"
);
}
);
width = 169;
}
);
rightMetricsKey = "nun-uyg";
script = "Old Uyghur";
category = Letter;
},
{
glyphname = "nun-uyg.medi";
lastChange = "2021-12-09 08:59:54 +0000";
layers = (
{
anchors = (
{
name = top;
position = "{74, 326}";
}
);
layerId = m01;
paths = (
{
closed = 1;
nodes = (
"-8 8 LINE SMOOTH",
"-8 3 OFFCURVE",
"-5 0 OFFCURVE",
"0 0 CURVE SMOOTH",
"149 0 LINE SMOOTH",
"154 0 OFFCURVE",
"157 3 OFFCURVE",
"157 8 CURVE SMOOTH",
"157 87 LINE SMOOTH",
"157 92 OFFCURVE",
"154 95 OFFCURVE",
"149 95 CURVE SMOOTH",
"0 95 LINE SMOOTH",
"-5 95 OFFCURVE",
"-8 92 OFFCURVE",
"-8 87 CURVE SMOOTH"
);
},
{
closed = 1;
nodes = (
"82 0 LINE SMOOTH",
"126 0 OFFCURVE",
"149 31 OFFCURVE",
"149 74 CURVE SMOOTH",
"149 122 OFFCURVE",
"122 195 OFFCURVE",
"97 236 CURVE",
"88 236 LINE",
"66 185 OFFCURVE",
"36 126 OFFCURVE",
"0 89 CURVE",
"51 0 LINE"
);
}
);
width = 149;
}
);
script = "Old Uyghur";
category = Letter;
},
{
glyphname = "pe-uyg.fina";
lastChange = "2021-12-09 08:59:54 +0000";
layers = (
{
layerId = m01;
paths = (
{
closed = 1;
nodes = (
"672 0 LINE SMOOTH",
"677 0 OFFCURVE",
"680 3 OFFCURVE",
"680 8 CURVE SMOOTH",
"680 87 LINE SMOOTH",
"680 92 OFFCURVE",
"677 95 OFFCURVE",
"672 95 CURVE SMOOTH",
"671 95 LINE",
"652 239 OFFCURVE",
"556 324 OFFCURVE",
"517 324 CURVE SMOOTH",
"482 324 OFFCURVE",
"389 237 OFFCURVE",
"389 190 CURVE SMOOTH",
"389 162 OFFCURVE",
"397 115 OFFCURVE",
"399 95 CURVE",
"356 95 LINE SMOOTH",
"155 95 OFFCURVE",
"37 245 OFFCURVE",
"29 466 CURVE",
"17 466 LINE",
"5 419 LINE",
"0 140 OFFCURVE",
"147 0 OFFCURVE",
"332 0 CURVE SMOOTH"
);
},
{
closed = 1;
nodes = (
"453 201 OFFCURVE",
"471 225 OFFCURVE",
"484 225 CURVE SMOOTH",
"506 225 OFFCURVE",
"571 130 OFFCURVE",
"587 95 CURVE",
"480 95 LINE",
"473 115 OFFCURVE",
"453 164 OFFCURVE",
"453 186 CURVE SMOOTH"
);
}
);
width = 672;
}
);
leftMetricsKey = "pe-uyg";
script = "Old Uyghur";
category = Letter;
subCategory = Other;
},
{
glyphname = "pe-uyg.fina_waw-uyg.fina";
lastChange = "2021-12-09 08:59:54 +0000";
layers = (
{
anchors = (
{
name = caret_1;
position = "{312, 0}";
}
);
components = (
{
name = "pe-uyg_waw-uyg";
}
);
layerId = m01;
paths = (
{
closed = 1;
nodes = (
"657 0 LINE SMOOTH",
"662 0 OFFCURVE",
"665 3 OFFCURVE",
"665 8 CURVE SMOOTH",
"665 87 LINE SMOOTH",
"665 92 OFFCURVE",
"662 95 OFFCURVE",
"657 95 CURVE SMOOTH",
"583 95 LINE",
"480 0 LINE"
);
}
);
width = 657;
}
);
script = "Old Uyghur";
category = Letter;
},
{
glyphname = "pe-uyg.init";
lastChange = "2021-12-09 08:59:54 +0000";
layers = (
{
layerId = m01;
paths = (
{
closed = 1;
nodes = (
"-25 -159 OFFCURVE",
"153 -82 OFFCURVE",
"335 68 CURVE",
"343 76 OFFCURVE",
"346 79 OFFCURVE",
"346 89 CURVE SMOOTH",
"346 165 OFFCURVE",
"267 329 OFFCURVE",
"182 329 CURVE SMOOTH",
"118 329 OFFCURVE",
"7 234 OFFCURVE",
"7 170 CURVE SMOOTH",
"7 117 OFFCURVE",
"51 59 OFFCURVE",
"90 14 CURVE",
"35 -21 OFFCURVE",
"-80 -50 OFFCURVE",
"-134 -50 CURVE SMOOTH",
"-178 -50 OFFCURVE",
"-178 -11 OFFCURVE",
"-178 31 CURVE",
"-187 31 LINE",
"-257 -52 LINE SMOOTH",
"-269 -66 OFFCURVE",
"-279 -78 OFFCURVE",
"-279 -96 CURVE SMOOTH",
"-279 -127 OFFCURVE",
"-253 -159 OFFCURVE",
"-194 -159 CURVE SMOOTH"
);
},
{
closed = 1;
nodes = (
"96 200 OFFCURVE",
"125 229 OFFCURVE",
"147 229 CURVE SMOOTH",
"171 229 OFFCURVE",
"215 179 OFFCURVE",
"238 116 CURVE",
"222 102 OFFCURVE",
"204 87 OFFCURVE",
"188 74 CURVE",
"139 108 OFFCURVE",
"96 163 OFFCURVE",
"96 181 CURVE SMOOTH"
);
}
);
width = 356;
}
);
script = "Old Uyghur";
category = Letter;
},
{
glyphname = "pe-uyg.init_waw-uyg.init";
lastChange = "2021-12-09 08:59:54 +0000";
layers = (
{
anchors = (
{
name = caret_1;
position = "{304, 0}";
}
);
components = (
{
name = "pe-uyg_waw-uyg";
}
);
layerId = m01;
paths = (
{
closed = 1;
nodes = (
"0 95 LINE SMOOTH",
"-5 95 OFFCURVE",
"-8 92 OFFCURVE",
"-8 87 CURVE SMOOTH",
"-8 8 LINE SMOOTH",
"-8 3 OFFCURVE",
"-5 0 OFFCURVE",
"0 0 CURVE SMOOTH",
"126 0 LINE",
"113 95 LINE"
);
}
);
width = 665;
}
);
script = "Old Uyghur";
category = Letter;
},
{
glyphname = "pe-uyg.medi";
lastChange = "2021-12-09 08:59:54 +0000";
layers = (
{
layerId = m01;
paths = (
{
closed = 1;
nodes = (
"-22 -156 OFFCURVE",
"155 -78 OFFCURVE",
"257 0 CURVE",
"346 0 LINE SMOOTH",
"351 0 OFFCURVE",
"354 3 OFFCURVE",
"354 8 CURVE SMOOTH",
"354 87 LINE SMOOTH",
"354 92 OFFCURVE",
"351 95 OFFCURVE",
"346 95 CURVE SMOOTH",
"345 95 LINE",
"324 243 OFFCURVE",
"231 326 OFFCURVE",
"182 326 CURVE SMOOTH",
"118 326 OFFCURVE",
"7 232 OFFCURVE",
"7 168 CURVE SMOOTH",
"7 119 OFFCURVE",
"47 64 OFFCURVE",
"89 14 CURVE",
"34 -20 OFFCURVE",
"-79 -49 OFFCURVE",
"-131 -49 CURVE SMOOTH",
"-174 -49 OFFCURVE",
"-174 -12 OFFCURVE",
"-174 31 CURVE",
"-184 31 LINE",
"-253 -51 LINE SMOOTH",
"-265 -65 OFFCURVE",
"-275 -78 OFFCURVE",
"-275 -94 CURVE SMOOTH",
"-275 -125 OFFCURVE",
"-250 -156 OFFCURVE",
"-190 -156 CURVE SMOOTH"
);
},
{
closed = 1;
nodes = (
"97 199 OFFCURVE",
"123 227 OFFCURVE",
"147 227 CURVE SMOOTH",
"170 227 OFFCURVE",
"214 178 OFFCURVE",
"237 115 CURVE",
"221 101 OFFCURVE",
"204 87 OFFCURVE",
"188 75 CURVE",
"139 108 OFFCURVE",
"97 163 OFFCURVE",
"97 181 CURVE SMOOTH"
);
}
);
width = 346;
}
);
script = "Old Uyghur";
category = Letter;
},
{
glyphname = "pe-uyg.medi_waw-uyg.medi";
lastChange = "2021-12-09 08:59:54 +0000";
layers = (
{
anchors = (
{
name = caret_1;
position = "{314, 0}";
}
);
components = (
{
name = "pe-uyg_waw-uyg";
transform = "{1, 0, 0, 1, 6, 0}";
}
);
layerId = m01;
paths = (
{
closed = 1;
nodes = (
"657 0 LINE SMOOTH",
"662 0 OFFCURVE",
"665 3 OFFCURVE",
"665 8 CURVE SMOOTH",
"665 87 LINE SMOOTH",
"665 92 OFFCURVE",
"662 95 OFFCURVE",
"657 95 CURVE SMOOTH",
"536 95 LINE",
"549 0 LINE"
);
},
{
closed = 1;
nodes = (
"0 95 LINE SMOOTH",
"-5 95 OFFCURVE",
"-8 92 OFFCURVE",
"-8 87 CURVE SMOOTH",
"-8 8 LINE SMOOTH",
"-8 3 OFFCURVE",
"-5 0 OFFCURVE",
"0 0 CURVE SMOOTH",
"141 0 LINE",
"129 95 LINE"
);
}
);
width = 657;
}
);
script = "Old Uyghur";
category = Letter;
},
{
glyphname = "resh-uyg.fina";
lastChange = "2021-12-09 08:59:54 +0000";
layers = (
{
layerId = m01;
paths = (
{
closed = 1;
nodes = (
"213 202 LINE",
"262 169 OFFCURVE",
"307 123 OFFCURVE",
"328 80 CURVE",
"309 0 LINE",
"400 0 LINE SMOOTH",
"450 0 OFFCURVE",
"475 41 OFFCURVE",
"475 97 CURVE SMOOTH",
"475 151 OFFCURVE",
"463 212 OFFCURVE",
"445 263 CURVE",
"436 263 LINE",
"389 140 LINE",
"378 192 OFFCURVE",
"361 244 OFFCURVE",
"336 295 CURVE",
"213 208 LINE"
);
},
{
closed = 1;
nodes = (
"44 -4 OFFCURVE",
"75 0 OFFCURVE",
"119 0 CURVE SMOOTH",
"475 0 LINE SMOOTH",
"480 0 OFFCURVE",
"483 3 OFFCURVE",
"483 8 CURVE SMOOTH",
"483 87 LINE SMOOTH",
"483 92 OFFCURVE",
"480 95 OFFCURVE",
"475 95 CURVE SMOOTH",
"130 95 LINE SMOOTH",
"84 95 OFFCURVE",
"65 88 OFFCURVE",
"50 64 CURVE SMOOTH",
"10 -2 LINE",
"13 -12 LINE"
);
}
);
width = 475;
}
);
leftMetricsKey = "resh-uyg";
script = "Old Uyghur";
category = Letter;
subCategory = Other;
},
{
glyphname = "resh-uyg.init";
lastChange = "2021-12-09 08:59:54 +0000";
layers = (
{
layerId = m01;
paths = (
{
closed = 1;
nodes = (
"201 0 LINE SMOOTH",
"244 0 OFFCURVE",
"271 40 OFFCURVE",
"271 84 CURVE SMOOTH",
"271 138 OFFCURVE",
"240 200 OFFCURVE",
"217 235 CURVE",
"208 235 LINE",
"189 195 OFFCURVE",
"163 152 OFFCURVE",
"132 115 CURVE",
"76 235 LINE",
"64 235 LINE",
"49 189 OFFCURVE",
"28 141 OFFCURVE",
"0 95 CURVE",
"-5 95 OFFCURVE",
"-8 92 OFFCURVE",
"-8 87 CURVE SMOOTH",
"-8 8 LINE SMOOTH",
"-8 3 OFFCURVE",
"-5 0 OFFCURVE",
"0 0 CURVE SMOOTH"
);
}
);
width = 281;
}
);
script = "Old Uyghur";
category = Letter;
},
{
glyphname = "resh-uyg.medi";
lastChange = "2021-12-09 08:59:54 +0000";
layers = (
{
layerId = m01;
paths = (
{
closed = 1;
nodes = (
"271 0 LINE SMOOTH",
"276 0 OFFCURVE",
"279 3 OFFCURVE",
"279 8 CURVE SMOOTH",
"279 87 LINE SMOOTH",
"279 92 OFFCURVE",
"276 95 OFFCURVE",
"271 95 CURVE",
"265 143 OFFCURVE",
"241 201 OFFCURVE",
"218 237 CURVE",
"209 237 LINE",
"193 199 OFFCURVE",
"170 153 OFFCURVE",
"139 120 CURVE",
"76 237 LINE",
"64 237 LINE",
"50 191 OFFCURVE",
"29 136 OFFCURVE",
"0 95 CURVE",
"-5 95 OFFCURVE",
"-8 92 OFFCURVE",
"-8 87 CURVE SMOOTH",
"-8 8 LINE SMOOTH",
"-8 3 OFFCURVE",
"-5 0 OFFCURVE",
"0 0 CURVE SMOOTH"
);
}
);
width = 271;
}
);
script = "Old Uyghur";
category = Letter;
},
{
glyphname = "sadhe-uyg.alt";
lastChange = "2021-12-09 08:59:54 +0000";
layers = (
{
layerId = m01;
paths = (
{
closed = 1;
nodes = (
"312 277 LINE",
"262 259 OFFCURVE",
"183 256 OFFCURVE",
"111 256 CURVE SMOOTH",
"82 256 OFFCURVE",
"61 252 OFFCURVE",
"61 199 CURVE SMOOTH",
"61 68 OFFCURVE",
"48 -131 OFFCURVE",
"-50 -274 CURVE",
"-35 -284 LINE",
"48 -199 OFFCURVE",
"88 -110 OFFCURVE",
"104 0 CURVE",
"320 0 LINE SMOOTH",
"325 0 OFFCURVE",
"328 3 OFFCURVE",
"328 8 CURVE SMOOTH",
"328 87 LINE SMOOTH",
"328 92 OFFCURVE",
"325 95 OFFCURVE",
"320 95 CURVE SMOOTH",
"112 95 LINE",
"115 159 LINE",
"140 158 OFFCURVE",
"212 157 OFFCURVE",
"246 157 CURVE SMOOTH",
"265 157 OFFCURVE",
"273 162 OFFCURVE",
"283 187 CURVE SMOOTH",
"318 274 LINE"
);
}
);
width = 320;
}
);
script = "Old Uyghur";
category = Letter;
subCategory = Other;
},
{
glyphname = "sadhe-uyg.fina";
lastChange = "2021-12-09 08:59:54 +0000";
layers = (
{
layerId = m01;
paths = (
{
closed = 1;
nodes = (
"98 -13 LINE",
"556 0 LINE",
"769 0 LINE SMOOTH",
"774 0 OFFCURVE",
"777 3 OFFCURVE",
"777 8 CURVE SMOOTH",
"777 87 LINE SMOOTH",
"777 92 OFFCURVE",
"774 95 OFFCURVE",
"769 95 CURVE SMOOTH",
"207 95 LINE SMOOTH",
"125 95 OFFCURVE",
"110 110 OFFCURVE",
"108 167 CURVE",
"98 167 LINE",
"31 99 LINE SMOOTH",
"19 86 OFFCURVE",
"10 73 OFFCURVE",
"10 52 CURVE SMOOTH",
"10 25 OFFCURVE",
"32 -13 OFFCURVE",
"82 -13 CURVE SMOOTH"
);
},
{
closed = 1;
nodes = (
"760 279 LINE",
"709 262 OFFCURVE",
"629 258 OFFCURVE",
"606 258 CURVE SMOOTH",
"573 258 OFFCURVE",
"551 251 OFFCURVE",
"538 199 CURVE SMOOTH",
"506 74 LINE",
"557 77 LINE",
"580 160 LINE",
"592 160 OFFCURVE",
"650 158 OFFCURVE",
"692 158 CURVE SMOOTH",
"712 158 OFFCURVE",
"718 163 OFFCURVE",
"729 189 CURVE SMOOTH",
"765 276 LINE"
);
}
);
width = 769;
}
);
script = "Old Uyghur";
category = Letter;
subCategory = Other;
},
{
glyphname = "sadhe-uyg.init";
lastChange = "2021-12-09 08:59:54 +0000";
layers = (
{
layerId = m01;
paths = (
{
closed = 1;
nodes = (
"232 99 OFFCURVE",
"200 95 OFFCURVE",
"158 95 CURVE SMOOTH",
"0 95 LINE SMOOTH",
"-5 95 OFFCURVE",
"-8 92 OFFCURVE",
"-8 87 CURVE SMOOTH",
"-8 8 LINE SMOOTH",
"-8 3 OFFCURVE",
"-5 0 OFFCURVE",
"0 0 CURVE SMOOTH",
"147 0 LINE SMOOTH",
"192 0 OFFCURVE",
"210 8 OFFCURVE",
"225 32 CURVE SMOOTH",
"265 97 LINE",
"262 106 LINE"
);
},
{
closed = 1;
nodes = (
"254 278 LINE",
"204 261 OFFCURVE",
"124 257 OFFCURVE",
"101 257 CURVE SMOOTH",
"69 257 OFFCURVE",
"46 250 OFFCURVE",
"33 199 CURVE SMOOTH",
"2 74 LINE",
"53 77 LINE",
"76 160 LINE",
"88 159 OFFCURVE",
"145 158 OFFCURVE",
"187 158 CURVE SMOOTH",
"207 158 OFFCURVE",
"214 163 OFFCURVE",
"224 188 CURVE SMOOTH",
"260 275 LINE"
);
}
);
width = 280;
}
);
rightMetricsKey = "sadhe-uyg";
script = "Old Uyghur";
category = Letter;
},
{
glyphname = "sadhe-uyg.medi";
lastChange = "2021-12-09 08:59:54 +0000";
layers = (
{
layerId = m01;
paths = (
{
closed = 1;
nodes = (
"-8 8 LINE SMOOTH",
"-8 3 OFFCURVE",
"-5 0 OFFCURVE",
"0 0 CURVE SMOOTH",
"259 0 LINE SMOOTH",
"264 0 OFFCURVE",
"267 3 OFFCURVE",
"267 8 CURVE SMOOTH",
"267 87 LINE SMOOTH",
"267 92 OFFCURVE",
"264 95 OFFCURVE",
"259 95 CURVE SMOOTH",
"0 95 LINE SMOOTH",
"-5 95 OFFCURVE",
"-8 92 OFFCURVE",
"-8 87 CURVE SMOOTH"
);
},
{
closed = 1;
nodes = (
"257 280 LINE",
"207 262 OFFCURVE",
"127 258 OFFCURVE",
"104 258 CURVE SMOOTH",
"71 258 OFFCURVE",
"49 252 OFFCURVE",
"36 200 CURVE SMOOTH",
"4 74 LINE",
"56 78 LINE",
"78 161 LINE",
"90 160 OFFCURVE",
"148 158 OFFCURVE",
"190 158 CURVE SMOOTH",
"210 158 OFFCURVE",
"218 164 OFFCURVE",
"228 189 CURVE SMOOTH",
"263 276 LINE"
);
}
);
width = 259;
}
);
script = "Old Uyghur";
category = Letter;
},
{
glyphname = "samekh-uyg.fina";
lastChange = "2021-12-09 08:59:54 +0000";
layers = (
{
layerId = m01;
paths = (
{
closed = 1;
nodes = (
"182 83 OFFCURVE",
"198 72 OFFCURVE",
"198 31 CURVE SMOOTH",
"198 -13 OFFCURVE",
"178 -65 OFFCURVE",
"144 -109 CURVE",
"186 -150 LINE",
"308 -55 LINE SMOOTH",
"387 6 OFFCURVE",
"408 32 OFFCURVE",
"408 75 CURVE SMOOTH",
"408 123 OFFCURVE",
"381 206 OFFCURVE",
"354 256 CURVE",
"341 256 LINE",
"320 175 OFFCURVE",
"282 95 OFFCURVE",
"228 31 CURVE",
"283 -2 LINE",
"283 118 OFFCURVE",
"245 184 OFFCURVE",
"188 235 CURVE",
"176 235 LINE",
"92 82 OFFCURVE",
"2 -19 OFFCURVE",
"-100 -95 CURVE",
"-87 -112 LINE",
"-3 -67 OFFCURVE",
"116 5 OFFCURVE",
"195 95 CURVE",
"173 92 LINE"
);
},
{
closed = 1;
nodes = (
"333 0 LINE",
"408 0 LINE SMOOTH",
"413 0 OFFCURVE",
"416 3 OFFCURVE",
"416 8 CURVE SMOOTH",
"416 87 LINE SMOOTH",
"416 92 OFFCURVE",
"413 95 OFFCURVE",
"408 95 CURVE SMOOTH",
"333 95 LINE"
);
}
);
width = 408;
}
);
leftMetricsKey = "samekh-uyg";
script = "Old Uyghur";
category = Letter;
subCategory = Other;
},
{
glyphname = "samekh-uyg.init";
lastChange = "2021-12-09 08:59:54 +0000";
layers = (
{
layerId = m01;
paths = (
{
closed = 1;
nodes = (
"226 -47 LINE SMOOTH",
"296 7 OFFCURVE",
"313 44 OFFCURVE",
"313 74 CURVE SMOOTH",
"313 121 OFFCURVE",
"285 203 OFFCURVE",
"261 255 CURVE",
"246 255 LINE",
"224 174 OFFCURVE",
"188 95 OFFCURVE",
"134 29 CURVE",
"189 -2 LINE",
"189 115 OFFCURVE",
"151 183 OFFCURVE",
"95 234 CURVE",
"83 234 LINE",
"68 159 OFFCURVE",
"43 96 OFFCURVE",
"0 96 CURVE SMOOTH",
"-5 96 OFFCURVE",
"-8 92 OFFCURVE",
"-8 87 CURVE SMOOTH",
"-8 8 LINE SMOOTH",
"-8 3 OFFCURVE",
"-5 0 OFFCURVE",
"0 0 CURVE SMOOTH",
"45 0 OFFCURVE",
"86 19 OFFCURVE",
"107 84 CURVE",
"79 91 LINE",
"87 83 OFFCURVE",
"105 71 OFFCURVE",
"105 29 CURVE SMOOTH",
"105 -14 OFFCURVE",
"85 -66 OFFCURVE",
"51 -109 CURVE",
"93 -151 LINE"
);
}
);
width = 323;
}
);
script = "Old Uyghur";
category = Letter;
},
{
glyphname = "samekh-uyg.medi";
lastChange = "2021-12-09 08:59:54 +0000";
layers = (
{
layerId = m01;
paths = (
{
closed = 1;
nodes = (
"267 -13 LINE SMOOTH",
"296 10 OFFCURVE",
"313 45 OFFCURVE",
"313 75 CURVE SMOOTH",
"313 124 OFFCURVE",
"286 205 OFFCURVE",
"260 255 CURVE",
"248 255 LINE",
"225 174 OFFCURVE",
"187 96 OFFCURVE",
"134 31 CURVE",
"190 0 LINE",
"190 117 OFFCURVE",
"151 183 OFFCURVE",
"94 234 CURVE",
"83 234 LINE",
"69 160 OFFCURVE",
"41 96 OFFCURVE",
"0 96 CURVE SMOOTH",
"-5 96 OFFCURVE",
"-8 92 OFFCURVE",
"-8 87 CURVE SMOOTH",
"-8 8 LINE SMOOTH",
"-8 3 OFFCURVE",
"-5 0 OFFCURVE",
"0 0 CURVE SMOOTH",
"43 0 OFFCURVE",
"85 19 OFFCURVE",
"107 84 CURVE",
"80 92 LINE",
"87 83 OFFCURVE",
"105 69 OFFCURVE",
"105 29 CURVE SMOOTH",
"105 -14 OFFCURVE",
"84 -65 OFFCURVE",
"51 -108 CURVE",
"93 -149 LINE"
);
},
{
closed = 1;
nodes = (
"313 0 LINE SMOOTH",
"318 0 OFFCURVE",
"321 3 OFFCURVE",
"321 8 CURVE SMOOTH",
"321 87 LINE SMOOTH",
"321 92 OFFCURVE",
"318 95 OFFCURVE",
"313 95 CURVE SMOOTH",
"241 95 LINE",
"241 0 LINE"
);
}
);
width = 313;
}
);
script = "Old Uyghur";
category = Letter;
},
{
glyphname = "shin-uyg.fina";
lastChange = "2021-12-09 08:59:54 +0000";
layers = (
{
anchors = (
{
name = bottom;
position = "{209, -130}";
}
);
layerId = m01;
paths = (
{
closed = 1;
nodes = (
"350 -148 LINE",
"360 -148 LINE",
"433 -96 OFFCURVE",
"520 0 OFFCURVE",
"520 75 CURVE SMOOTH",
"520 124 OFFCURVE",
"493 208 OFFCURVE",
"466 259 CURVE",
"454 259 LINE",
"428 172 OFFCURVE",
"402 86 OFFCURVE",
"339 19 CURVE",
"407 21 LINE",
"308 238 LINE",
"296 238 LINE",
"199 83 OFFCURVE",
"108 -21 OFFCURVE",
"5 -97 CURVE",
"18 -115 LINE",
"104 -69 OFFCURVE",
"225 3 OFFCURVE",
"304 95 CURVE",
"252 69 LINE"
);
},
{
closed = 1;
nodes = (
"520 0 LINE SMOOTH",
"525 0 OFFCURVE",
"528 3 OFFCURVE",
"528 8 CURVE SMOOTH",
"528 87 LINE SMOOTH",
"528 92 OFFCURVE",
"525 95 OFFCURVE",
"520 95 CURVE SMOOTH",
"445 95 LINE",
"445 0 LINE"
);
}
);
width = 520;
}
);
leftMetricsKey = "gimelHeth-uyg";
script = "Old Uyghur";
category = Letter;
subCategory = Other;
},
{
glyphname = "shin-uyg.init";
lastChange = "2021-12-09 08:59:54 +0000";
layers = (
{
anchors = (
{
name = bottom;
position = "{17, -130}";
}
);
layerId = m01;
paths = (
{
closed = 1;
nodes = (
"160 -146 LINE",
"232 -95 OFFCURVE",
"323 9 OFFCURVE",
"323 75 CURVE SMOOTH",
"323 133 OFFCURVE",
"294 206 OFFCURVE",
"270 257 CURVE",
"260 257 LINE",
"238 173 OFFCURVE",
"207 86 OFFCURVE",
"143 19 CURVE",
"211 20 LINE",
"111 237 LINE",
"101 237 LINE",
"59 68 LINE",
"149 -146 LINE"
);
},
{
closed = 1;
nodes = (
"44 2 OFFCURVE",
"80 19 OFFCURVE",
"102 85 CURVE",
"111 237 LINE",
"99 237 LINE",
"74 162 OFFCURVE",
"43 96 OFFCURVE",
"0 96 CURVE SMOOTH",
"-5 96 OFFCURVE",
"-8 92 OFFCURVE",
"-8 87 CURVE SMOOTH",
"-8 8 LINE SMOOTH",
"-8 3 OFFCURVE",
"-5 0 OFFCURVE",
"0 0 CURVE SMOOTH"
);
}
);
width = 343;
}
);
rightMetricsKey = "shin-uyg";
script = "Old Uyghur";
category = Letter;
},
{
glyphname = "shin-uyg.medi";
lastChange = "2021-12-09 08:59:54 +0000";
layers = (
{
anchors = (
{
name = bottom;
position = "{-28, -245}";
}
);
layerId = m01;
paths = (
{
closed = 1;
nodes = (
"321 0 LINE SMOOTH",
"326 0 OFFCURVE",
"329 3 OFFCURVE",
"329 8 CURVE SMOOTH",
"329 87 LINE SMOOTH",
"329 92 OFFCURVE",
"326 95 OFFCURVE",
"321 95 CURVE SMOOTH",
"249 95 LINE",
"249 0 LINE"
);
},
{
closed = 1;
nodes = (
"160 -145 LINE",
"231 -94 OFFCURVE",
"321 9 OFFCURVE",
"321 74 CURVE SMOOTH",
"321 132 OFFCURVE",
"292 204 OFFCURVE",
"269 253 CURVE",
"257 253 LINE",
"237 172 OFFCURVE",
"205 85 OFFCURVE",
"144 19 CURVE",
"211 21 LINE",
"111 235 LINE",
"102 235 LINE",
"60 68 LINE",
"149 -145 LINE"
);
},
{
closed = 1;
nodes = (
"44 0 OFFCURVE",
"82 20 OFFCURVE",
"103 84 CURVE",
"111 235 LINE",
"100 235 LINE",
"76 160 OFFCURVE",
"43 96 OFFCURVE",
"0 96 CURVE SMOOTH",
"-6 96 OFFCURVE",
"-8 92 OFFCURVE",
"-8 87 CURVE SMOOTH",
"-8 8 LINE SMOOTH",
"-8 3 OFFCURVE",
"-5 0 OFFCURVE",
"0 0 CURVE SMOOTH"
);
}
);
width = 321;
}
);
script = "Old Uyghur";
category = Letter;
},
{
glyphname = "taw-uyg.fina";
lastChange = "2021-12-09 08:59:54 +0000";
layers = (
{
layerId = m01;
paths = (
{
closed = 1;
nodes = (
"98 -13 LINE",
"434 -2 LINE SMOOTH",
"482 0 OFFCURVE",
"506 18 OFFCURVE",
"534 40 CURVE SMOOTH",
"595 88 LINE",
"583 147 LINE",
"545 121 LINE SMOOTH",
"515 101 OFFCURVE",
"480 95 OFFCURVE",
"441 95 CURVE SMOOTH",
"207 95 LINE SMOOTH",
"125 95 OFFCURVE",
"109 110 OFFCURVE",
"107 167 CURVE",
"98 167 LINE",
"31 99 LINE SMOOTH",
"19 87 OFFCURVE",
"10 73 OFFCURVE",
"10 53 CURVE SMOOTH",
"10 26 OFFCURVE",
"32 -13 OFFCURVE",
"82 -13 CURVE SMOOTH"
);
},
{
closed = 1;
nodes = (
"845 0 LINE SMOOTH",
"865 0 OFFCURVE",
"870 42 OFFCURVE",
"870 76 CURVE SMOOTH",
"870 167 OFFCURVE",
"832 288 OFFCURVE",
"780 288 CURVE SMOOTH",
"726 288 OFFCURVE",
"678 235 OFFCURVE",
"623 175 CURVE",
"634 111 LINE",
"666 145 OFFCURVE",
"710 184 OFFCURVE",
"729 184 CURVE SMOOTH",
"746 184 OFFCURVE",
"758 125 OFFCURVE",
"758 95 CURVE",
"683 95 LINE SMOOTH",
"656 95 OFFCURVE",
"649 105 OFFCURVE",
"650 128 CURVE SMOOTH",
"657 302 LINE",
"652 302 LINE",
"591 234 OFFCURVE",
"540 165 OFFCURVE",
"540 82 CURVE SMOOTH",
"540 33 OFFCURVE",
"582 0 OFFCURVE",
"634 0 CURVE SMOOTH"
);
},
{
closed = 1;
nodes = (
"842 0 LINE",
"870 0 LINE SMOOTH",
"875 0 OFFCURVE",
"878 3 OFFCURVE",
"878 8 CURVE SMOOTH",
"878 87 LINE SMOOTH",
"878 92 OFFCURVE",
"875 95 OFFCURVE",
"870 95 CURVE SMOOTH",
"842 95 LINE"
);
}
);
width = 870;
}
);
script = "Old Uyghur";
category = Letter;
subCategory = Other;
},
{
glyphname = "taw-uyg.init";
lastChange = "2021-12-09 08:59:54 +0000";
layers = (
{
layerId = m01;
paths = (
{
closed = 1;
nodes = (
"170 -135 OFFCURVE",
"319 -45 OFFCURVE",
"319 34 CURVE SMOOTH",
"319 84 OFFCURVE",
"252 121 OFFCURVE",
"170 121 CURVE SMOOTH",
"144 121 OFFCURVE",
"116 118 OFFCURVE",
"88 110 CURVE",
"88 8 LINE",
"130 30 OFFCURVE",
"161 37 OFFCURVE",
"183 37 CURVE SMOOTH",
"206 37 OFFCURVE",
"217 30 OFFCURVE",
"217 23 CURVE SMOOTH",
"217 4 OFFCURVE",
"162 -40 OFFCURVE",
"141 -40 CURVE SMOOTH",
"111 -40 OFFCURVE",
"108 75 OFFCURVE",
"109 98 CURVE SMOOTH",
"117 270 LINE",
"112 270 LINE",
"52 203 OFFCURVE",
"1 146 OFFCURVE",
"1 28 CURVE SMOOTH",
"1 -86 OFFCURVE",
"42 -135 OFFCURVE",
"94 -135 CURVE SMOOTH"
);
},
{
closed = 1;
nodes = (
"-8 8 LINE SMOOTH",
"-8 3 OFFCURVE",
"-5 0 OFFCURVE",
"0 0 CURVE SMOOTH",
"52 0 LINE",
"52 95 LINE",
"0 95 LINE SMOOTH",
"-5 95 OFFCURVE",
"-8 92 OFFCURVE",
"-8 87 CURVE SMOOTH"
);
}
);
width = 329;
}
);
script = "Old Uyghur";
category = Letter;
},
{
glyphname = "taw-uyg.medi";
lastChange = "2021-12-09 08:59:54 +0000";
layers = (
{
layerId = m01;
paths = (
{
closed = 1;
nodes = (
"378 0 LINE SMOOTH",
"400 0 OFFCURVE",
"404 42 OFFCURVE",
"404 77 CURVE SMOOTH",
"404 167 OFFCURVE",
"366 288 OFFCURVE",
"314 288 CURVE SMOOTH",
"260 288 OFFCURVE",
"212 236 OFFCURVE",
"158 176 CURVE",
"167 112 LINE",
"200 145 OFFCURVE",
"244 184 OFFCURVE",
"263 184 CURVE SMOOTH",
"280 184 OFFCURVE",
"292 125 OFFCURVE",
"292 95 CURVE",
"217 95 LINE SMOOTH",
"190 95 OFFCURVE",
"183 105 OFFCURVE",
"184 128 CURVE SMOOTH",
"191 302 LINE",
"187 302 LINE",
"125 235 OFFCURVE",
"74 166 OFFCURVE",
"74 82 CURVE SMOOTH",
"74 33 OFFCURVE",
"115 0 OFFCURVE",
"168 0 CURVE SMOOTH"
);
},
{
closed = 1;
nodes = (
"370 0 LINE",
"404 0 LINE SMOOTH",
"409 0 OFFCURVE",
"412 3 OFFCURVE",
"412 8 CURVE SMOOTH",
"412 87 LINE SMOOTH",
"412 92 OFFCURVE",
"409 95 OFFCURVE",
"404 95 CURVE SMOOTH",
"370 95 LINE"
);
},
{
closed = 1;
nodes = (
"-8 8 LINE SMOOTH",
"-8 3 OFFCURVE",
"-5 0 OFFCURVE",
"0 0 CURVE SMOOTH",
"26 0 OFFCURVE",
"35 6 OFFCURVE",
"78 40 CURVE SMOOTH",
"140 88 LINE",
"127 147 LINE",
"89 121 LINE SMOOTH",
"60 101 OFFCURVE",
"29 95 OFFCURVE",
"6 95 CURVE SMOOTH",
"0 95 LINE SMOOTH",
"-5 95 OFFCURVE",
"-8 92 OFFCURVE",
"-8 87 CURVE SMOOTH"
);
}
);
width = 404;
}
);
script = "Old Uyghur";
category = Letter;
},
{
glyphname = "waw-uyg.fina";
lastChange = "2021-12-09 08:59:54 +0000";
layers = (
{
layerId = m01;
paths = (
{
closed = 1;
nodes = (
"462 11 LINE",
"467 165 LINE SMOOTH",
"467 168 OFFCURVE",
"467 172 OFFCURVE",
"465 176 CURVE",
"450 230 OFFCURVE",
"412 266 OFFCURVE",
"348 266 CURVE SMOOTH",
"265 266 OFFCURVE",
"210 203 OFFCURVE",
"189 93 CURVE",
"247 83 LINE",
"263 145 OFFCURVE",
"299 169 OFFCURVE",
"339 169 CURVE SMOOTH",
"386 169 OFFCURVE",
"419 130 OFFCURVE",
"420 63 CURVE"
);
},
{
closed = 1;
nodes = (
"38 -4 OFFCURVE",
"70 0 OFFCURVE",
"113 0 CURVE SMOOTH",
"472 0 LINE SMOOTH",
"477 0 OFFCURVE",
"480 3 OFFCURVE",
"480 8 CURVE SMOOTH",
"480 87 LINE SMOOTH",
"480 92 OFFCURVE",
"477 95 OFFCURVE",
"472 95 CURVE SMOOTH",
"124 95 LINE SMOOTH",
"78 95 OFFCURVE",
"60 88 OFFCURVE",
"45 63 CURVE SMOOTH",
"5 -2 LINE",
"8 -11 LINE"
);
}
);
width = 472;
}
);
leftMetricsKey = "waw-uyg";
script = "Old Uyghur";
category = Letter;
subCategory = Other;
},
{
glyphname = "waw-uyg.init";
lastChange = "2021-12-09 08:59:54 +0000";
layers = (
{
layerId = m01;
paths = (
{
closed = 1;
nodes = (
"-8 8 LINE SMOOTH",
"-8 3 OFFCURVE",
"-5 0 OFFCURVE",
"0 0 CURVE SMOOTH",
"224 0 LINE SMOOTH",
"230 0 OFFCURVE",
"234 3 OFFCURVE",
"234 10 CURVE SMOOTH",
"237 143 LINE SMOOTH",
"238 200 OFFCURVE",
"191 277 OFFCURVE",
"165 277 CURVE SMOOTH",
"135 277 OFFCURVE",
"48 193 OFFCURVE",
"0 95 CURVE",
"-5 95 OFFCURVE",
"-8 92 OFFCURVE",
"-8 87 CURVE SMOOTH"
);
},
{
closed = 1;
nodes = (
"74 138 OFFCURVE",
"113 176 OFFCURVE",
"125 176 CURVE SMOOTH",
"139 176 OFFCURVE",
"175 130 OFFCURVE",
"181 95 CURVE",
"49 95 LINE"
);
}
);
width = 257;
}
);
script = "Old Uyghur";
category = Letter;
},
{
glyphname = "waw-uyg.medi";
lastChange = "2021-12-09 08:59:54 +0000";
layers = (
{
layerId = m01;
paths = (
{
closed = 1;
nodes = (
"-8 8 LINE SMOOTH",
"-8 3 OFFCURVE",
"-5 0 OFFCURVE",
"0 0 CURVE SMOOTH",
"234 0 LINE SMOOTH",
"239 0 OFFCURVE",
"242 3 OFFCURVE",
"242 8 CURVE SMOOTH",
"242 87 LINE SMOOTH",
"242 92 OFFCURVE",
"239 95 OFFCURVE",
"234 95 CURVE",
"234 200 OFFCURVE",
"190 277 OFFCURVE",
"164 277 CURVE SMOOTH",
"134 277 OFFCURVE",
"48 193 OFFCURVE",
"0 95 CURVE",
"-5 95 OFFCURVE",
"-8 92 OFFCURVE",
"-8 87 CURVE SMOOTH"
);
},
{
closed = 1;
nodes = (
"72 138 OFFCURVE",
"111 176 OFFCURVE",
"124 176 CURVE SMOOTH",
"138 176 OFFCURVE",
"173 129 OFFCURVE",
"179 95 CURVE",
"48 95 LINE"
);
}
);
width = 234;
}
);
script = "Old Uyghur";
category = Letter;
},
{
glyphname = "yodh-uyg.fina";
lastChange = "2021-12-09 08:59:54 +0000";
layers = (
{
guideLines = (
{
angle = 225;
position = "{222, 204}";
}
);
layerId = m01;
paths = (
{
closed = 1;
nodes = (
"43 -4 OFFCURVE",
"75 0 OFFCURVE",
"118 0 CURVE SMOOTH",
"475 0 LINE SMOOTH",
"480 0 OFFCURVE",
"483 3 OFFCURVE",
"483 8 CURVE SMOOTH",
"483 87 LINE SMOOTH",
"483 92 OFFCURVE",
"480 95 OFFCURVE",
"475 95 CURVE SMOOTH",
"460 95 LINE",
"433 184 LINE SMOOTH",
"409 262 OFFCURVE",
"359 279 OFFCURVE",
"298 279 CURVE SMOOTH",
"285 279 OFFCURVE",
"275 273 OFFCURVE",
"263 262 CURVE SMOOTH",
"162 162 LINE",
"167 155 LINE",
"190 160 OFFCURVE",
"213 163 OFFCURVE",
"231 163 CURVE SMOOTH",
"284 163 OFFCURVE",
"300 151 OFFCURVE",
"338 95 CURVE",
"129 95 LINE SMOOTH",
"83 95 OFFCURVE",
"65 87 OFFCURVE",
"50 63 CURVE SMOOTH",
"10 -2 LINE",
"14 -12 LINE"
);
}
);
width = 475;
}
);
script = "Old Uyghur";
category = Letter;
subCategory = Other;
},
{
glyphname = "yodh-uyg.init";
lastChange = "2021-12-09 08:59:54 +0000";
layers = (
{
guideLines = (
{
angle = 225;
position = "{120, 190}";
}
);
layerId = m01;
paths = (
{
closed = 1;
nodes = (
"-8 8 LINE SMOOTH",
"-8 3 OFFCURVE",
"-5 0 OFFCURVE",
"0 0 CURVE SMOOTH",
"263 0 LINE",
"281 61 LINE",
"267 95 LINE",
"0 95 LINE SMOOTH",
"-5 95 OFFCURVE",
"-8 92 OFFCURVE",
"-8 87 CURVE SMOOTH"
);
},
{
closed = 1;
nodes = (
"189 283 LINE",
"71 177 LINE",
"96 137 OFFCURVE",
"177 101 OFFCURVE",
"242 85 CURVE",
"263 0 LINE",
"355 99 LINE SMOOTH",
"357 101 OFFCURVE",
"358 103 OFFCURVE",
"358 106 CURVE SMOOTH",
"358 110 OFFCURVE",
"356 114 OFFCURVE",
"351 115 CURVE",
"283 146 OFFCURVE",
"236 213 OFFCURVE",
"196 283 CURVE"
);
}
);
width = 373;
}
);
rightMetricsKey = "yodh-uyg";
script = "Old Uyghur";
category = Letter;
},
{
glyphname = "yodh-uyg.medi";
lastChange = "2021-12-09 08:59:54 +0000";
layers = (
{
guideLines = (
{
angle = 225;
position = "{78, 198}";
}
);
layerId = m01;
paths = (
{
closed = 1;
nodes = (
"-8 8 LINE SMOOTH",
"-8 3 OFFCURVE",
"-5 0 OFFCURVE",
"0 0 CURVE SMOOTH",
"276 0 LINE SMOOTH",
"281 0 OFFCURVE",
"284 3 OFFCURVE",
"284 8 CURVE SMOOTH",
"284 87 LINE SMOOTH",
"284 92 OFFCURVE",
"281 95 OFFCURVE",
"276 95 CURVE",
"246 176 OFFCURVE",
"187 243 OFFCURVE",
"112 279 CURVE",
"16 176 LINE",
"18 167 LINE",
"65 159 OFFCURVE",
"111 137 OFFCURVE",
"149 95 CURVE",
"0 95 LINE SMOOTH",
"-5 95 OFFCURVE",
"-8 92 OFFCURVE",
"-8 87 CURVE SMOOTH"
);
}
);
width = 276;
}
);
script = "Old Uyghur";
category = Letter;
},
{
glyphname = "zayin-uyg.fina";
lastChange = "2021-12-09 08:59:54 +0000";
layers = (
{
anchors = (
{
name = bottom;
position = "{103, 0}";
}
);
guideLines = (
{
angle = 225;
position = "{131, 15}";
},
{
angle = 225;
position = "{-26, 155}";
}
);
layerId = m01;
paths = (
{
closed = 1;
nodes = (
"14 -12 LINE",
"43 -5 OFFCURVE",
"76 0 OFFCURVE",
"119 0 CURVE SMOOTH",
"226 0 LINE SMOOTH",
"231 0 OFFCURVE",
"234 3 OFFCURVE",
"234 8 CURVE SMOOTH",
"234 87 LINE SMOOTH",
"234 92 OFFCURVE",
"231 95 OFFCURVE",
"226 95 CURVE SMOOTH",
"129 95 LINE SMOOTH",
"83 95 OFFCURVE",
"66 85 OFFCURVE",
"51 62 CURVE SMOOTH",
"10 -2 LINE"
);
},
{
closed = 1;
nodes = (
"130 76 LINE",
"188 0 LINE",
"220 0 OFFCURVE",
"226 13 OFFCURVE",
"226 90 CURVE SMOOTH",
"226 285 LINE",
"213 286 LINE",
"149 226 LINE"
);
}
);
width = 226;
}
);
script = "Old Uyghur";
category = Letter;
subCategory = Other;
},
{
glyphname = u10AF2;
lastChange = "2021-12-09 08:59:54 +0000";
layers = (
{
layerId = m01;
paths = (
{
closed = 1;
nodes = (
"406 -24 OFFCURVE",
"460 13 OFFCURVE",
"492 65 CURVE",
"536 8 OFFCURVE",
"605 -24 OFFCURVE",
"688 -24 CURVE SMOOTH",
"846 -24 OFFCURVE",
"897 108 OFFCURVE",
"897 190 CURVE SMOOTH",
"897 333 OFFCURVE",
"816 458 OFFCURVE",
"648 458 CURVE SMOOTH",
"567 458 OFFCURVE",
"512 421 OFFCURVE",
"479 370 CURVE",
"438 422 OFFCURVE",
"373 458 OFFCURVE",
"282 458 CURVE SMOOTH",
"136 458 OFFCURVE",
"73 339 OFFCURVE",
"73 250 CURVE SMOOTH",
"73 75 OFFCURVE",
"177 -24 OFFCURVE",
"322 -24 CURVE SMOOTH"
);
},
{
closed = 1;
nodes = (
"226 63 OFFCURVE",
"165 137 OFFCURVE",
"165 233 CURVE SMOOTH",
"165 306 OFFCURVE",
"198 370 OFFCURVE",
"291 370 CURVE SMOOTH",
"373 370 OFFCURVE",
"440 299 OFFCURVE",
"440 192 CURVE SMOOTH",
"440 132 OFFCURVE",
"417 63 OFFCURVE",
"321 63 CURVE SMOOTH"
);
},
{
closed = 1;
nodes = (
"328 165 OFFCURVE",
"359 197 OFFCURVE",
"394 222 CURVE",
"370 258 OFFCURVE",
"339 293 OFFCURVE",
"297 315 CURVE",
"265 292 OFFCURVE",
"232 260 OFFCURVE",
"207 221 CURVE",
"249 193 OFFCURVE",
"279 161 OFFCURVE",
"303 130 CURVE"
);
},
{
closed = 1;
nodes = (
"592 63 OFFCURVE",
"531 137 OFFCURVE",
"531 221 CURVE SMOOTH",
"531 306 OFFCURVE",
"564 370 OFFCURVE",
"657 370 CURVE SMOOTH",
"738 370 OFFCURVE",
"806 304 OFFCURVE",
"806 197 CURVE SMOOTH",
"806 135 OFFCURVE",
"785 63 OFFCURVE",
"687 63 CURVE SMOOTH"
);
},
{
closed = 1;
nodes = (
"694 165 OFFCURVE",
"725 197 OFFCURVE",
"760 222 CURVE",
"736 258 OFFCURVE",
"706 293 OFFCURVE",
"663 315 CURVE",
"631 292 OFFCURVE",
"599 260 OFFCURVE",
"573 221 CURVE",
"615 193 OFFCURVE",
"646 161 OFFCURVE",
"669 130 CURVE"
);
}
);
width = 970;
}
);
unicode = 10AF2;
script = "Old Uyghur";
category = Punctuation;
},
{
glyphname = PunctuationBar;
lastChange = "2021-12-09 08:59:54 +0000";
layers = (
{
layerId = m01;
paths = (
{
closed = 1;
nodes = (
"272 276 LINE",
"214 314 LINE",
"55 28 LINE",
"100 0 LINE"
);
}
);
width = 327;
}
);
rightMetricsKey = "=|";
unicode = 10F86;
script = "Old Uyghur";
category = Punctuation;
},
{
glyphname = PunctuationTwoBars;
lastChange = "2021-12-09 08:59:54 +0000";
layers = (
{
layerId = m01;
paths = (
{
closed = 1;
nodes = (
"272 276 LINE",
"214 314 LINE",
"55 28 LINE",
"100 0 LINE"
);
},
{
closed = 1;
nodes = (
"432 276 LINE",
"374 314 LINE",
"215 28 LINE",
"260 0 LINE"
);
}
);
width = 487;
}
);
rightMetricsKey = "=|";
unicode = 10F87;
script = "Old Uyghur";
category = Punctuation;
},
{
glyphname = PunctuationTwoDots;
lastChange = "2021-12-09 08:59:54 +0000";
layers = (
{
layerId = m01;
paths = (
{
closed = 1;
nodes = (
"322 179 LINE",
"284 153 OFFCURVE",
"253 122 OFFCURVE",
"226 84 CURVE",
"322 -12 LINE",
"348 26 OFFCURVE",
"380 58 OFFCURVE",
"418 84 CURVE"
);
},
{
closed = 1;
nodes = (
"117 178 LINE",
"79 152 OFFCURVE",
"47 121 OFFCURVE",
"20 82 CURVE",
"117 -13 LINE",
"143 25 OFFCURVE",
"174 57 OFFCURVE",
"212 82 CURVE"
);
}
);
width = 438;
}
);
rightMetricsKey = "=|";
unicode = 10F88;
script = "Old Uyghur";
category = Punctuation;
},
{
glyphname = PunctuationFourDots;
lastChange = "2021-12-09 08:59:54 +0000";
layers = (
{
layerId = m01;
paths = (
{
closed = 1;
nodes = (
"377 298 LINE",
"339 272 OFFCURVE",
"307 241 OFFCURVE",
"279 202 CURVE",
"377 105 LINE",
"403 143 OFFCURVE",
"436 176 OFFCURVE",
"474 202 CURVE"
);
},
{
closed = 1;
nodes = (
"251 175 LINE",
"212 149 OFFCURVE",
"180 117 OFFCURVE",
"154 79 CURVE",
"251 -18 LINE",
"278 20 OFFCURVE",
"309 53 OFFCURVE",
"348 79 CURVE"
);
},
{
closed = 1;
nodes = (
"254 420 LINE",
"216 395 OFFCURVE",
"183 363 OFFCURVE",
"157 323 CURVE",
"254 227 LINE",
"281 266 OFFCURVE",
"312 298 OFFCURVE",
"350 323 CURVE"
);
},
{
closed = 1;
nodes = (
"128 297 LINE",
"90 271 OFFCURVE",
"57 240 OFFCURVE",
"30 200 CURVE",
"128 104 LINE",
"154 142 OFFCURVE",
"186 175 OFFCURVE",
"225 200 CURVE"
);
}
);
width = 504;
}
);
rightMetricsKey = "=|";
unicode = 10F89;
script = "Old Uyghur";
category = Punctuation;
},
{
glyphname = "dotabove-uyg";
lastChange = "2021-12-09 08:59:54 +0000";
layers = (
{
anchors = (
{
name = _top;
position = "{175, 402}";
}
);
layerId = m01;
paths = (
{
closed = 1;
nodes = (
"298 608 LINE",
"246 651 LINE",
"120 485 LINE",
"159 452 LINE"
);
}
);
width = 0;
}
);
unicode = 10F82;
script = "Old Uyghur";
category = Mark;
},
{
glyphname = "dotbelow-uyg";
lastChange = "2021-12-09 08:59:54 +0000";
layers = (
{
anchors = (
{
name = _bottom;
position = "{219, 0}";
}
);
layerId = m01;
paths = (
{
closed = 1;
nodes = (
"120 -216 LINE",
"172 -259 LINE",
"298 -93 LINE",
"259 -60 LINE"
);
}
);
width = 0;
}
);
unicode = 10F83;
script = "Old Uyghur";
category = Mark;
},
{
glyphname = "twodotsabove-uyg";
lastChange = "2021-12-09 08:59:54 +0000";
layers = (
{
anchors = (
{
name = _top;
position = "{225, 402}";
}
);
layerId = m01;
paths = (
{
closed = 1;
nodes = (
"298 608 LINE",
"246 651 LINE",
"120 485 LINE",
"159 452 LINE"
);
},
{
closed = 1;
nodes = (
"429 608 LINE",
"377 651 LINE",
"251 485 LINE",
"290 452 LINE"
);
}
);
width = 0;
}
);
unicode = 10F84;
script = "Old Uyghur";
category = Mark;
},
{
glyphname = "twodotsbelow-uyg";
lastChange = "2021-12-09 08:59:54 +0000";
layers = (
{
anchors = (
{
name = _bottom;
position = "{290, 0}";
}
);
layerId = m01;
paths = (
{
closed = 1;
nodes = (
"251 -216 LINE",
"303 -259 LINE",
"429 -93 LINE",
"390 -60 LINE"
);
},
{
closed = 1;
nodes = (
"120 -216 LINE",
"172 -259 LINE",
"298 -93 LINE",
"259 -60 LINE"
);
}
);
width = 0;
}
);
unicode = 10F85;
script = "Old Uyghur";
category = Mark;
},
{
glyphname = "mem-uyg_lesh-uyg";
lastChange = "2021-12-09 08:59:54 +0000";
layers = (
{
anchors = (
{
name = caret_1;
position = "{314, 0}";
}
);
layerId = m01;
paths = (
{
closed = 1;
nodes = (
"98 -77 LINE SMOOTH",
"52 -77 OFFCURVE",
"35 -85 OFFCURVE",
"20 -109 CURVE SMOOTH",
"-20 -173 LINE",
"-17 -183 LINE",
"12 -176 OFFCURVE",
"45 -171 OFFCURVE",
"87 -171 CURVE",
"74 -215 LINE SMOOTH",
"69 -230 OFFCURVE",
"66 -240 OFFCURVE",
"66 -248 CURVE SMOOTH",
"66 -270 OFFCURVE",
"73 -280 OFFCURVE",
"102 -280 CURVE SMOOTH",
"140 -280 OFFCURVE",
"195 -287 OFFCURVE",
"234 -299 CURVE",
"242 -295 LINE",
"292 -192 LINE",
"288 -186 LINE",
"158 -186 LINE",
"159 -171 LINE",
"543 -171 LINE SMOOTH",
"581 -171 OFFCURVE",
"598 -128 OFFCURVE",
"615 -89 CURVE",
"616 -83 LINE",
"582 -63 OFFCURVE",
"540 -34 OFFCURVE",
"515 0 CURVE",
"542 0 LINE SMOOTH",
"579 0 OFFCURVE",
"617 -4 OFFCURVE",
"652 -8 CURVE",
"714 102 LINE",
"710 106 LINE",
"693 105 OFFCURVE",
"558 95 OFFCURVE",
"519 95 CURVE",
"514 145 OFFCURVE",
"490 216 OFFCURVE",
"467 260 CURVE",
"459 260 LINE",
"435 195 OFFCURVE",
"405 140 OFFCURVE",
"371 95 CURVE",
"243 95 LINE",
"286 245 LINE",
"277 255 LINE",
"237 226 OFFCURVE",
"188 186 OFFCURVE",
"145 131 CURVE",
"135 298 LINE",
"129 301 LINE",
"92 263 OFFCURVE",
"23 178 OFFCURVE",
"23 114 CURVE SMOOTH",
"23 41 OFFCURVE",
"79 0 OFFCURVE",
"173 0 CURVE SMOOTH",
"448 0 LINE",
"485 -77 LINE"
);
}
);
width = 724;
}
);
rightMetricsKey = "lesh-uyg";
script = "Old Uyghur";
},
{
glyphname = "pe-uyg_lesh-uyg";
lastChange = "2021-12-09 08:59:54 +0000";
layers = (
{
anchors = (
{
name = caret_1;
position = "{311, 0}";
}
);
components = (
{
name = "pe-uyg.init";
transform = "{1, 0, 0, 1, 316, 0}";
}
);
layerId = m01;
paths = (
{
closed = 1;
nodes = (
"126 318 LINE",
"86 277 OFFCURVE",
"10 173 OFFCURVE",
"10 124 CURVE SMOOTH",
"10 43 OFFCURVE",
"93 -8 OFFCURVE",
"187 -16 CURVE SMOOTH",
"222 -19 OFFCURVE",
"228 16 OFFCURVE",
"237 47 CURVE SMOOTH",
"297 257 LINE",
"288 268 LINE",
"230 228 OFFCURVE",
"155 165 OFFCURVE",
"102 72 CURVE",
"147 72 LINE",
"146 95 LINE",
"133 315 LINE"
);
},
{
closed = 1;
nodes = (
"292 -220 LINE",
"288 -214 LINE",
"146 -214 LINE",
"154 -235 LINE",
"168 -92 LINE",
"128 -60 LINE",
"72 -242 LINE SMOOTH",
"67 -257 OFFCURVE",
"64 -267 OFFCURVE",
"64 -275 CURVE SMOOTH",
"64 -297 OFFCURVE",
"71 -307 OFFCURVE",
"102 -307 CURVE SMOOTH",
"138 -307 OFFCURVE",
"195 -314 OFFCURVE",
"234 -327 CURVE",
"242 -322 LINE"
);
}
);
width = 682;
}
);
leftMetricsKey = "lesh-uyg";
rightMetricsKey = "pe-uyg";
script = "Old Uyghur";
},
{
glyphname = "pe-uyg_waw-uyg";
lastChange = "2021-12-09 08:59:54 +0000";
layers = (
{
anchors = (
{
name = caret_1;
position = "{315, 0}";
}
);
layerId = m01;
paths = (
{
closed = 1;
nodes = (
"295 -154 OFFCURVE",
"467 -80 OFFCURVE",
"643 65 CURVE SMOOTH",
"652 73 OFFCURVE",
"655 77 OFFCURVE",
"655 87 CURVE SMOOTH",
"655 161 OFFCURVE",
"578 319 OFFCURVE",
"495 319 CURVE SMOOTH",
"432 319 OFFCURVE",
"325 227 OFFCURVE",
"325 165 CURVE SMOOTH",
"325 116 OFFCURVE",
"365 62 OFFCURVE",
"406 14 CURVE",
"353 -20 OFFCURVE",
"242 -49 OFFCURVE",
"189 -49 CURVE SMOOTH",
"140 -49 OFFCURVE",
"88 -29 OFFCURVE",
"73 0 CURVE",
"224 0 LINE SMOOTH",
"249 0 OFFCURVE",
"295 78 OFFCURVE",
"295 113 CURVE SMOOTH",
"295 164 OFFCURVE",
"220 261 OFFCURVE",
"138 261 CURVE SMOOTH",
"72 261 OFFCURVE",
"20 199 OFFCURVE",
"20 57 CURVE SMOOTH",
"20 -60 OFFCURVE",
"76 -154 OFFCURVE",
"186 -154 CURVE SMOOTH"
);
},
{
closed = 1;
nodes = (
"89 146 OFFCURVE",
"107 166 OFFCURVE",
"144 166 CURVE SMOOTH",
"183 166 OFFCURVE",
"228 141 OFFCURVE",
"244 95 CURVE",
"72 95 LINE"
);
},
{
closed = 1;
nodes = (
"521 61 LINE",
"465 89 OFFCURVE",
"412 156 OFFCURVE",
"412 176 CURVE SMOOTH",
"412 194 OFFCURVE",
"440 221 OFFCURVE",
"462 221 CURVE SMOOTH",
"488 221 OFFCURVE",
"537 164 OFFCURVE",
"556 94 CURVE",
"580 143 LINE",
"550 109 OFFCURVE",
"498 68 OFFCURVE",
"467 46 CURVE"
);
}
);
width = 675;
}
);
rightMetricsKey = "pe-uyg";
script = "Old Uyghur";
},
{
glyphname = "pe-uyg.medi_lesh-uyg.medi";
lastChange = "2021-12-09 08:59:54 +0000";
layers = (
{
anchors = (
{
name = caret_1;
position = "{311, 0}";
}
);
components = (
{
name = "pe-uyg.medi";
transform = "{1, 0, 0, 1, 316, 0}";
}
);
layerId = m01;
paths = (
{
closed = 1;
nodes = (
"264 84 LINE",
"176 117 OFFCURVE",
"145 177 OFFCURVE",
"111 232 CURVE",
"98 232 LINE",
"88 174 OFFCURVE",
"67 129 OFFCURVE",
"37 95 CURVE",
"0 95 LINE SMOOTH",
"-5 95 OFFCURVE",
"-8 92 OFFCURVE",
"-8 87 CURVE SMOOTH",
"-8 8 LINE SMOOTH",
"-8 3 OFFCURVE",
"-5 0 OFFCURVE",
"0 0 CURVE SMOOTH",
"196 0 LINE SMOOTH",
"232 0 OFFCURVE",
"242 29 OFFCURVE",
"266 76 CURVE"
);
},
{
closed = 1;
nodes = (
"302 -216 LINE",
"298 -210 LINE",
"156 -210 LINE",
"164 -231 LINE",
"178 -88 LINE",
"138 -56 LINE",
"82 -238 LINE SMOOTH",
"77 -253 OFFCURVE",
"74 -263 OFFCURVE",
"74 -271 CURVE SMOOTH",
"74 -293 OFFCURVE",
"81 -303 OFFCURVE",
"112 -303 CURVE SMOOTH",
"148 -303 OFFCURVE",
"205 -310 OFFCURVE",
"244 -323 CURVE",
"252 -318 LINE"
);
}
);
width = 662;
}
);
rightMetricsKey = "lesh-uyg.medi";
script = "Old Uyghur";
},
{
glyphname = "kaph-uyg.init_waw-uyg.init";
lastChange = "2021-12-09 08:59:54 +0000";
layers = (
{
anchors = (
{
name = caret_1;
position = "{301, 0}";
}
);
layerId = m01;
paths = (
{
closed = 1;
nodes = (
"549 98 LINE",
"479 127 OFFCURVE",
"436 210 OFFCURVE",
"397 279 CURVE",
"391 279 LINE",
"298 186 LINE",
"318 147 OFFCURVE",
"389 66 OFFCURVE",
"433 45 CURVE",
"433 0 LINE"
);
},
{
closed = 1;
nodes = (
"354 -159 OFFCURVE",
"644 41 OFFCURVE",
"644 118 CURVE SMOOTH",
"644 123 OFFCURVE",
"644 130 OFFCURVE",
"641 143 CURVE SMOOTH",
"606 276 LINE",
"591 276 LINE",
"583 236 OFFCURVE",
"551 171 OFFCURVE",
"514 130 CURVE SMOOTH",
"448 58 LINE",
"363 -9 OFFCURVE",
"262 -51 OFFCURVE",
"177 -51 CURVE SMOOTH",
"104 -51 OFFCURVE",
"71 -32 OFFCURVE",
"52 0 CURVE",
"210 0 LINE SMOOTH",
"234 0 OFFCURVE",
"282 78 OFFCURVE",
"282 116 CURVE SMOOTH",
"282 169 OFFCURVE",
"205 268 OFFCURVE",
"119 268 CURVE SMOOTH",
"51 268 OFFCURVE",
"0 204 OFFCURVE",
"0 58 CURVE SMOOTH",
"0 -63 OFFCURVE",
"54 -159 OFFCURVE",
"169 -159 CURVE SMOOTH"
);
},
{
closed = 1;
nodes = (
"70 148 OFFCURVE",
"87 170 OFFCURVE",
"125 170 CURVE SMOOTH",
"165 170 OFFCURVE",
"213 143 OFFCURVE",
"228 95 CURVE",
"51 95 LINE"
);
},
{
closed = 1;
nodes = (
"0 95 LINE SMOOTH",
"-5 95 OFFCURVE",
"-8 92 OFFCURVE",
"-8 87 CURVE SMOOTH",
"-8 8 LINE SMOOTH",
"-8 3 OFFCURVE",
"-5 0 OFFCURVE",
"0 0 CURVE SMOOTH",
"123 0 LINE",
"109 95 LINE"
);
}
);
width = 664;
}
);
script = "Old Uyghur";
},
{
glyphname = "mem-uyg.fina_lesh-uyg.fina";
lastChange = "2021-12-09 08:59:54 +0000";
layers = (
{
anchors = (
{
name = caret_1;
position = "{332, 0}";
}
);
components = (
{
alignment = -1;
name = "mem-uyg.medi";
transform = "{1, 0, 0, 1, 282, 0}";
}
);
layerId = m01;
paths = (
{
closed = 1;
nodes = (
"117 305 LINE",
"79 267 OFFCURVE",
"10 170 OFFCURVE",
"10 123 CURVE SMOOTH",
"10 48 OFFCURVE",
"74 0 OFFCURVE",
"162 0 CURVE SMOOTH",
"278 0 LINE SMOOTH",
"283 0 OFFCURVE",
"286 3 OFFCURVE",
"286 8 CURVE SMOOTH",
"286 87 LINE SMOOTH",
"286 92 OFFCURVE",
"283 95 OFFCURVE",
"278 95 CURVE SMOOTH",
"234 95 LINE",
"278 248 LINE",
"268 259 LINE",
"228 229 OFFCURVE",
"177 188 OFFCURVE",
"133 132 CURVE",
"123 303 LINE"
);
},
{
closed = 1;
nodes = (
"552 -220 LINE",
"548 -214 LINE",
"406 -214 LINE",
"414 -235 LINE",
"428 -92 LINE",
"388 -60 LINE",
"332 -242 LINE SMOOTH",
"327 -257 OFFCURVE",
"324 -267 OFFCURVE",
"324 -275 CURVE SMOOTH",
"324 -297 OFFCURVE",
"331 -307 OFFCURVE",
"362 -307 CURVE SMOOTH",
"398 -307 OFFCURVE",
"455 -314 OFFCURVE",
"494 -327 CURVE",
"502 -322 LINE"
);
}
);
width = 697;
}
);
rightMetricsKey = "lesh-uyg.fina";
script = "Old Uyghur";
},
{
glyphname = "mem-uyg.init_lesh-uyg.init";
lastChange = "2021-12-09 08:59:54 +0000";
layers = (
{
anchors = (
{
name = caret_1;
position = "{321, 0}";
}
);
layerId = m01;
paths = (
{
closed = 1;
nodes = (
"117 -77 LINE SMOOTH",
"72 -77 OFFCURVE",
"53 -85 OFFCURVE",
"39 -109 CURVE SMOOTH",
"0 -174 LINE",
"2 -184 LINE",
"32 -177 OFFCURVE",
"64 -172 OFFCURVE",
"107 -172 CURVE SMOOTH",
"563 -172 LINE SMOOTH",
"600 -172 OFFCURVE",
"617 -129 OFFCURVE",
"634 -89 CURVE",
"635 -83 LINE",
"598 -61 OFFCURVE",
"552 -28 OFFCURVE",
"528 9 CURVE",
"467 2 LINE",
"505 -77 LINE"
);
},
{
closed = 1;
nodes = (
"464 40 LINE",
"539 76 LINE",
"539 124 OFFCURVE",
"512 209 OFFCURVE",
"487 259 CURVE",
"479 259 LINE",
"453 194 OFFCURVE",
"423 137 OFFCURVE",
"388 91 CURVE"
);
},
{
closed = 1;
nodes = (
"734 102 LINE",
"729 106 LINE",
"713 105 OFFCURVE",
"579 95 OFFCURVE",
"538 95 CURVE SMOOTH",
"307 95 LINE",
"278 40 LINE",
"307 0 LINE",
"563 0 LINE SMOOTH",
"598 0 OFFCURVE",
"636 -5 OFFCURVE",
"670 -8 CURVE"
);
},
{
closed = 1;
nodes = (
"192 0 LINE",
"307 0 LINE",
"307 95 LINE",
"233 95 LINE"
);
},
{
closed = 1;
nodes = (
"312 -192 LINE",
"308 -187 LINE",
"166 -187 LINE",
"176 -208 LINE",
"184 -129 LINE",
"124 -117 LINE",
"94 -215 LINE SMOOTH",
"89 -231 OFFCURVE",
"85 -240 OFFCURVE",
"85 -249 CURVE SMOOTH",
"85 -270 OFFCURVE",
"93 -280 OFFCURVE",
"122 -280 CURVE SMOOTH",
"159 -280 OFFCURVE",
"215 -287 OFFCURVE",
"254 -299 CURVE",
"262 -295 LINE"
);
},
{
closed = 1;
nodes = (
"269 85 LINE",
"182 118 OFFCURVE",
"149 180 OFFCURVE",
"115 235 CURVE",
"103 235 LINE",
"92 177 OFFCURVE",
"71 129 OFFCURVE",
"40 95 CURVE",
"0 95 LINE SMOOTH",
"-5 95 OFFCURVE",
"-8 92 OFFCURVE",
"-8 87 CURVE SMOOTH",
"-8 8 LINE SMOOTH",
"-8 3 OFFCURVE",
"-5 0 OFFCURVE",
"0 0 CURVE SMOOTH",
"201 0 LINE SMOOTH",
"237 0 OFFCURVE",
"247 30 OFFCURVE",
"271 77 CURVE"
);
}
);
width = 744;
}
);
script = "Old Uyghur";
},
{
glyphname = "pe-uyg.fina_lesh-uyg.fina";
lastChange = "2021-12-09 08:59:54 +0000";
layers = (
{
anchors = (
{
name = caret_1;
position = "{305, 0}";
}
);
components = (
{
name = "pe-uyg.medi";
transform = "{1, 0, 0, 1, 315, 0}";
}
);
layerId = m01;
paths = (
{
closed = 1;
nodes = (
"126 318 LINE",
"86 277 OFFCURVE",
"10 173 OFFCURVE",
"10 124 CURVE SMOOTH",
"10 43 OFFCURVE",
"93 -8 OFFCURVE",
"187 -16 CURVE SMOOTH",
"222 -19 OFFCURVE",
"228 16 OFFCURVE",
"237 47 CURVE SMOOTH",
"297 257 LINE",
"288 268 LINE",
"230 228 OFFCURVE",
"155 165 OFFCURVE",
"102 72 CURVE",
"147 72 LINE",
"146 95 LINE",
"133 315 LINE"
);
},
{
closed = 1;
nodes = (
"292 -220 LINE",
"288 -214 LINE",
"146 -214 LINE",
"154 -235 LINE",
"168 -92 LINE",
"128 -60 LINE",
"72 -242 LINE SMOOTH",
"67 -257 OFFCURVE",
"64 -267 OFFCURVE",
"64 -275 CURVE SMOOTH",
"64 -297 OFFCURVE",
"71 -307 OFFCURVE",
"102 -307 CURVE SMOOTH",
"138 -307 OFFCURVE",
"195 -314 OFFCURVE",
"234 -327 CURVE",
"242 -322 LINE"
);
}
);
width = 661;
}
);
rightMetricsKey = "lesh-uyg.fina";
script = "Old Uyghur";
},
{
glyphname = "pe-uyg.init_lesh-uyg.init";
lastChange = "2021-12-09 08:59:54 +0000";
layers = (
{
anchors = (
{
name = caret_1;
position = "{305, 0}";
}
);
components = (
{
name = "pe-uyg.init";
transform = "{1, 0, 0, 1, 308, 0}";
}
);
layerId = m01;
paths = (
{
closed = 1;
nodes = (
"269 86 LINE",
"180 120 OFFCURVE",
"147 181 OFFCURVE",
"114 237 CURVE",
"100 237 LINE",
"90 178 OFFCURVE",
"68 131 OFFCURVE",
"38 95 CURVE",
"0 95 LINE SMOOTH",
"-5 95 OFFCURVE",
"-8 92 OFFCURVE",
"-8 87 CURVE SMOOTH",
"-8 8 LINE SMOOTH",
"-8 3 OFFCURVE",
"-5 0 OFFCURVE",
"0 0 CURVE SMOOTH",
"200 0 LINE SMOOTH",
"237 0 OFFCURVE",
"247 29 OFFCURVE",
"271 77 CURVE"
);
},
{
closed = 1;
nodes = (
"292 -216 LINE",
"288 -210 LINE",
"146 -210 LINE",
"154 -231 LINE",
"168 -88 LINE",
"128 -56 LINE",
"72 -238 LINE SMOOTH",
"67 -253 OFFCURVE",
"64 -263 OFFCURVE",
"64 -271 CURVE SMOOTH",
"64 -293 OFFCURVE",
"71 -303 OFFCURVE",
"102 -303 CURVE SMOOTH",
"138 -303 OFFCURVE",
"195 -310 OFFCURVE",
"234 -323 CURVE",
"242 -318 LINE"
);
}
);
width = 664;
}
);
script = "Old Uyghur";
},
{
glyphname = dottedCircle;
lastChange = "2021-12-09 08:59:54 +0000";
layers = (
{
anchors = (
{
name = bottom;
position = "{0, 0}";
},
{
name = top;
position = "{0, 0}";
}
);
layerId = m01;
paths = (
{
closed = 1;
nodes = (
"537 456 OFFCURVE",
"551 470 OFFCURVE",
"551 487 CURVE SMOOTH",
"551 504 OFFCURVE",
"537 517 OFFCURVE",
"519 517 CURVE SMOOTH",
"503 517 OFFCURVE",
"489 504 OFFCURVE",
"489 487 CURVE SMOOTH",
"489 470 OFFCURVE",
"503 456 OFFCURVE",
"519 456 CURVE SMOOTH"
);
},
{
closed = 1;
nodes = (
"155 82 OFFCURVE",
"169 95 OFFCURVE",
"169 112 CURVE SMOOTH",
"169 129 OFFCURVE",
"155 143 OFFCURVE",
"139 143 CURVE SMOOTH",
"121 143 OFFCURVE",
"107 129 OFFCURVE",
"107 112 CURVE SMOOTH",
"107 95 OFFCURVE",
"121 82 OFFCURVE",
"139 82 CURVE SMOOTH"
);
},
{
closed = 1;
nodes = (
"239 23 OFFCURVE",
"253 36 OFFCURVE",
"253 53 CURVE SMOOTH",
"253 70 OFFCURVE",
"239 84 OFFCURVE",
"223 84 CURVE SMOOTH",
"205 84 OFFCURVE",
"191 70 OFFCURVE",
"191 53 CURVE SMOOTH",
"191 36 OFFCURVE",
"205 23 OFFCURVE",
"223 23 CURVE SMOOTH"
);
},
{
closed = 1;
nodes = (
"98 168 OFFCURVE",
"112 181 OFFCURVE",
"112 198 CURVE SMOOTH",
"112 215 OFFCURVE",
"98 229 OFFCURVE",
"82 229 CURVE SMOOTH",
"64 229 OFFCURVE",
"50 215 OFFCURVE",
"50 198 CURVE SMOOTH",
"50 181 OFFCURVE",
"64 168 OFFCURVE",
"82 168 CURVE SMOOTH"
);
},
{
closed = 1;
nodes = (
"346 0 OFFCURVE",
"360 13 OFFCURVE",
"360 30 CURVE SMOOTH",
"360 47 OFFCURVE",
"346 61 OFFCURVE",
"328 61 CURVE SMOOTH",
"312 61 OFFCURVE",
"298 47 OFFCURVE",
"298 30 CURVE SMOOTH",
"298 13 OFFCURVE",
"312 0 OFFCURVE",
"328 0 CURVE SMOOTH"
);
},
{
closed = 1;
nodes = (
"78 269 OFFCURVE",
"92 282 OFFCURVE",
"92 299 CURVE SMOOTH",
"92 316 OFFCURVE",
"78 330 OFFCURVE",
"62 330 CURVE SMOOTH",
"44 330 OFFCURVE",
"30 316 OFFCURVE",
"30 299 CURVE SMOOTH",
"30 282 OFFCURVE",
"44 269 OFFCURVE",
"62 269 CURVE SMOOTH"
);
},
{
closed = 1;
nodes = (
"98 370 OFFCURVE",
"112 384 OFFCURVE",
"112 401 CURVE SMOOTH",
"112 418 OFFCURVE",
"98 431 OFFCURVE",
"82 431 CURVE SMOOTH",
"64 431 OFFCURVE",
"50 418 OFFCURVE",
"50 401 CURVE SMOOTH",
"50 384 OFFCURVE",
"64 370 OFFCURVE",
"82 370 CURVE SMOOTH"
);
},
{
closed = 1;
nodes = (
"453 23 OFFCURVE",
"467 36 OFFCURVE",
"467 53 CURVE SMOOTH",
"467 70 OFFCURVE",
"453 84 OFFCURVE",
"435 84 CURVE SMOOTH",
"419 84 OFFCURVE",
"405 70 OFFCURVE",
"405 53 CURVE SMOOTH",
"405 36 OFFCURVE",
"419 23 OFFCURVE",
"435 23 CURVE SMOOTH"
);
},
{
closed = 1;
nodes = (
"155 456 OFFCURVE",
"169 470 OFFCURVE",
"169 487 CURVE SMOOTH",
"169 504 OFFCURVE",
"155 517 OFFCURVE",
"139 517 CURVE SMOOTH",
"121 517 OFFCURVE",
"107 504 OFFCURVE",
"107 487 CURVE SMOOTH",
"107 470 OFFCURVE",
"121 456 OFFCURVE",
"139 456 CURVE SMOOTH"
);
},
{
closed = 1;
nodes = (
"537 82 OFFCURVE",
"551 95 OFFCURVE",
"551 112 CURVE SMOOTH",
"551 129 OFFCURVE",
"537 143 OFFCURVE",
"519 143 CURVE SMOOTH",
"503 143 OFFCURVE",
"489 129 OFFCURVE",
"489 112 CURVE SMOOTH",
"489 95 OFFCURVE",
"503 82 OFFCURVE",
"519 82 CURVE SMOOTH"
);
},
{
closed = 1;
nodes = (
"239 515 OFFCURVE",
"253 529 OFFCURVE",
"253 546 CURVE SMOOTH",
"253 563 OFFCURVE",
"239 576 OFFCURVE",
"223 576 CURVE SMOOTH",
"205 576 OFFCURVE",
"191 563 OFFCURVE",
"191 546 CURVE SMOOTH",
"191 529 OFFCURVE",
"205 515 OFFCURVE",
"223 515 CURVE SMOOTH"
);
},
{
closed = 1;
nodes = (
"594 168 OFFCURVE",
"608 181 OFFCURVE",
"608 198 CURVE SMOOTH",
"608 215 OFFCURVE",
"594 229 OFFCURVE",
"576 229 CURVE SMOOTH",
"560 229 OFFCURVE",
"546 215 OFFCURVE",
"546 198 CURVE SMOOTH",
"546 181 OFFCURVE",
"560 168 OFFCURVE",
"576 168 CURVE SMOOTH"
);
},
{
closed = 1;
nodes = (
"614 269 OFFCURVE",
"628 283 OFFCURVE",
"628 300 CURVE SMOOTH",
"628 317 OFFCURVE",
"614 330 OFFCURVE",
"596 330 CURVE SMOOTH",
"580 330 OFFCURVE",
"566 317 OFFCURVE",
"566 300 CURVE SMOOTH",
"566 283 OFFCURVE",
"580 269 OFFCURVE",
"596 269 CURVE SMOOTH"
);
},
{
closed = 1;
nodes = (
"346 538 OFFCURVE",
"360 552 OFFCURVE",
"360 569 CURVE SMOOTH",
"360 586 OFFCURVE",
"346 599 OFFCURVE",
"328 599 CURVE SMOOTH",
"312 599 OFFCURVE",
"298 586 OFFCURVE",
"298 569 CURVE SMOOTH",
"298 552 OFFCURVE",
"312 538 OFFCURVE",
"328 538 CURVE SMOOTH"
);
},
{
closed = 1;
nodes = (
"594 370 OFFCURVE",
"608 384 OFFCURVE",
"608 401 CURVE SMOOTH",
"608 418 OFFCURVE",
"594 431 OFFCURVE",
"576 431 CURVE SMOOTH",
"560 431 OFFCURVE",
"546 418 OFFCURVE",
"546 401 CURVE SMOOTH",
"546 384 OFFCURVE",
"560 370 OFFCURVE",
"576 370 CURVE SMOOTH"
);
},
{
closed = 1;
nodes = (
"453 515 OFFCURVE",
"467 529 OFFCURVE",
"467 546 CURVE SMOOTH",
"467 563 OFFCURVE",
"453 576 OFFCURVE",
"435 576 CURVE SMOOTH",
"419 576 OFFCURVE",
"405 563 OFFCURVE",
"405 546 CURVE SMOOTH",
"405 529 OFFCURVE",
"419 515 OFFCURVE",
"435 515 CURVE SMOOTH"
);
}
);
width = 658;
}
);
unicode = 25CC;
script = "";
category = "";
},
{
glyphname = .notdef;
lastChange = "2021-12-09 08:59:54 +0000";
layers = (
{
layerId = m01;
paths = (
{
closed = 1;
nodes = (
"505 0 LINE",
"505 714 LINE",
"94 714 LINE",
"94 0 LINE"
);
},
{
closed = 1;
nodes = (
"145 663 LINE",
"454 663 LINE",
"454 51 LINE",
"145 51 LINE"
);
}
